%TF.GenerationSoftware,KiCad,Pcbnew,9.0.5*%
%TF.CreationDate,2025-12-11T06:11:38-03:00*%
%TF.ProjectId,stage power dron_v1,73746167-6520-4706-9f77-65722064726f,rev?*%
%TF.SameCoordinates,Original*%
%TF.FileFunction,Copper,L2,Bot*%
%TF.FilePolarity,Positive*%
%FSLAX46Y46*%
G04 Gerber Fmt 4.6, Leading zero omitted, Abs format (unit mm)*
G04 Created by KiCad (PCBNEW 9.0.5) date 2025-12-11 06:11:38*
%MOMM*%
%LPD*%
G01*
G04 APERTURE LIST*
G04 Aperture macros list*
%AMRoundRect*
0 Rectangle with rounded corners*
0 $1 Rounding radius*
0 $2 $3 $4 $5 $6 $7 $8 $9 X,Y pos of 4 corners*
0 Add a 4 corners polygon primitive as box body*
4,1,4,$2,$3,$4,$5,$6,$7,$8,$9,$2,$3,0*
0 Add four circle primitives for the rounded corners*
1,1,$1+$1,$2,$3*
1,1,$1+$1,$4,$5*
1,1,$1+$1,$6,$7*
1,1,$1+$1,$8,$9*
0 Add four rect primitives between the rounded corners*
20,1,$1+$1,$2,$3,$4,$5,0*
20,1,$1+$1,$4,$5,$6,$7,0*
20,1,$1+$1,$6,$7,$8,$9,0*
20,1,$1+$1,$8,$9,$2,$3,0*%
G04 Aperture macros list end*
%TA.AperFunction,ComponentPad*%
%ADD10RoundRect,0.900000X2.100000X2.100000X-2.100000X2.100000X-2.100000X-2.100000X2.100000X-2.100000X0*%
%TD*%
%TA.AperFunction,ComponentPad*%
%ADD11RoundRect,0.650000X-0.650000X-1.350000X0.650000X-1.350000X0.650000X1.350000X-0.650000X1.350000X0*%
%TD*%
%TA.AperFunction,ComponentPad*%
%ADD12RoundRect,0.900000X-2.100000X2.100000X-2.100000X-2.100000X2.100000X-2.100000X2.100000X2.100000X0*%
%TD*%
%TA.AperFunction,ComponentPad*%
%ADD13C,5.700000*%
%TD*%
%TA.AperFunction,ComponentPad*%
%ADD14R,3.000000X3.000000*%
%TD*%
%TA.AperFunction,ComponentPad*%
%ADD15C,3.000000*%
%TD*%
%TA.AperFunction,ComponentPad*%
%ADD16R,1.700000X1.700000*%
%TD*%
%TA.AperFunction,ComponentPad*%
%ADD17C,1.700000*%
%TD*%
%TA.AperFunction,ComponentPad*%
%ADD18RoundRect,0.900000X2.100000X-2.100000X2.100000X2.100000X-2.100000X2.100000X-2.100000X-2.100000X0*%
%TD*%
%TA.AperFunction,ViaPad*%
%ADD19C,2.000000*%
%TD*%
G04 APERTURE END LIST*
D10*
%TO.P,J3,1,Pin_1*%
%TO.N,+12V*%
X112310000Y-89880000D03*
%TO.P,J3,2,Pin_2*%
%TO.N,GND*%
X112310000Y-82880000D03*
%TD*%
D11*
%TO.P,SW1,1,A*%
%TO.N,Net-(S1-IN)*%
X150420000Y-46305000D03*
%TO.P,SW1,2,B*%
%TO.N,GND*%
X155120000Y-46305000D03*
%TD*%
D12*
%TO.P,J2,1,Pin_1*%
%TO.N,+12V*%
X134477385Y-45698998D03*
%TO.P,J2,2,Pin_2*%
%TO.N,GND*%
X127477385Y-45698998D03*
%TD*%
D13*
%TO.P,H1,1*%
%TO.N,N/C*%
X162255178Y-50990734D03*
%TD*%
%TO.P,H3,1*%
%TO.N,N/C*%
X162255178Y-96452703D03*
%TD*%
%TO.P,H4,1*%
%TO.N,N/C*%
X116795073Y-96452703D03*
%TD*%
%TO.P,H2,1*%
%TO.N,N/C*%
X116795073Y-50990734D03*
%TD*%
D14*
%TO.P,J7,1,Pin_1*%
%TO.N,+5V*%
X165420000Y-70020000D03*
D15*
%TO.P,J7,2,Pin_2*%
%TO.N,GND*%
X165420000Y-75100000D03*
%TD*%
D10*
%TO.P,J5,1,Pin_1*%
%TO.N,+12V*%
X168460000Y-90100000D03*
%TO.P,J5,2,Pin_2*%
%TO.N,GND*%
X168460000Y-83100000D03*
%TD*%
D16*
%TO.P,J1,1,Pin_1*%
%TO.N,VBATT_SIG*%
X167690000Y-50640000D03*
D17*
%TO.P,J1,2,Pin_2*%
%TO.N,I_SIG*%
X167690000Y-48100000D03*
%TD*%
D18*
%TO.P,J4,1,Pin_1*%
%TO.N,+12V*%
X145260000Y-102120000D03*
%TO.P,J4,2,Pin_2*%
%TO.N,GND*%
X152260000Y-102120000D03*
%TD*%
%TO.P,J8,1,Pin_1*%
%TO.N,+12V*%
X131260000Y-102120000D03*
%TO.P,J8,2,Pin_2*%
%TO.N,GND*%
X138260000Y-102120000D03*
%TD*%
D14*
%TO.P,J11,1,Pin_1*%
%TO.N,+BATT*%
X157910000Y-64590000D03*
D15*
%TO.P,J11,2,Pin_2*%
%TO.N,GND*%
X157910000Y-59510000D03*
%TD*%
D14*
%TO.P,J6,1,Pin_1*%
%TO.N,GND*%
X140930000Y-54690000D03*
D15*
%TO.P,J6,2,Pin_2*%
%TO.N,+12V*%
X135850000Y-54690000D03*
%TD*%
D19*
%TO.N,GND*%
X136460000Y-91830000D03*
X129300000Y-92300000D03*
X160150000Y-78700000D03*
X122260000Y-81180000D03*
X163000000Y-45480000D03*
%TD*%
%TA.AperFunction,Conductor*%
%TO.N,GND*%
G36*
X131478297Y-42642456D02*
G01*
X131545322Y-42662180D01*
X131591046Y-42715011D01*
X131600948Y-42784175D01*
X131571886Y-42847714D01*
X131565904Y-42854135D01*
X131524910Y-42895129D01*
X131524906Y-42895135D01*
X131407103Y-43069189D01*
X131324372Y-43262384D01*
X131324369Y-43262395D01*
X131279697Y-43467747D01*
X131279697Y-43467753D01*
X131276885Y-43514960D01*
X131276885Y-47883036D01*
X131278869Y-47916358D01*
X131279697Y-47930248D01*
X131324369Y-48135600D01*
X131324372Y-48135611D01*
X131407103Y-48328806D01*
X131407105Y-48328809D01*
X131407106Y-48328811D01*
X131524908Y-48502863D01*
X131673520Y-48651475D01*
X131847572Y-48769277D01*
X131847574Y-48769278D01*
X131847576Y-48769279D01*
X131848459Y-48769657D01*
X132040773Y-48852011D01*
X132040781Y-48852012D01*
X132040782Y-48852013D01*
X132246134Y-48896685D01*
X132246135Y-48896685D01*
X132246140Y-48896686D01*
X132293347Y-48899498D01*
X132293358Y-48899498D01*
X136661412Y-48899498D01*
X136661423Y-48899498D01*
X136708630Y-48896686D01*
X136913997Y-48852011D01*
X137107198Y-48769277D01*
X137281250Y-48651475D01*
X137429862Y-48502863D01*
X137547664Y-48328811D01*
X137630398Y-48135610D01*
X137675073Y-47930243D01*
X137677885Y-47883036D01*
X137677885Y-44881048D01*
X148919500Y-44881048D01*
X148919500Y-47728951D01*
X148922317Y-47770499D01*
X148966963Y-47950021D01*
X148966964Y-47950023D01*
X149049156Y-48115750D01*
X149049157Y-48115751D01*
X149049158Y-48115753D01*
X149082945Y-48157785D01*
X149165059Y-48259940D01*
X149247173Y-48325945D01*
X149309247Y-48375842D01*
X149474979Y-48458037D01*
X149654501Y-48502682D01*
X149654502Y-48502682D01*
X149654505Y-48502683D01*
X149696046Y-48505500D01*
X149696048Y-48505500D01*
X151143952Y-48505500D01*
X151143954Y-48505500D01*
X151185495Y-48502683D01*
X151365021Y-48458037D01*
X151530753Y-48375842D01*
X151674940Y-48259940D01*
X151790842Y-48115753D01*
X151873037Y-47950021D01*
X151917683Y-47770495D01*
X151920500Y-47728954D01*
X151920500Y-44881046D01*
X151917683Y-44839505D01*
X151873037Y-44659979D01*
X151790842Y-44494247D01*
X151740945Y-44432173D01*
X151674940Y-44350059D01*
X151572785Y-44267945D01*
X151530753Y-44234158D01*
X151530751Y-44234157D01*
X151530750Y-44234156D01*
X151365023Y-44151964D01*
X151365021Y-44151963D01*
X151185497Y-44107317D01*
X151185501Y-44107317D01*
X151154339Y-44105204D01*
X151143954Y-44104500D01*
X149696046Y-44104500D01*
X149684177Y-44105304D01*
X149654500Y-44107317D01*
X149474978Y-44151963D01*
X149474976Y-44151964D01*
X149309249Y-44234156D01*
X149165059Y-44350059D01*
X149049156Y-44494249D01*
X148966964Y-44659976D01*
X148966963Y-44659978D01*
X148922317Y-44839500D01*
X148919500Y-44881048D01*
X137677885Y-44881048D01*
X137677885Y-43514960D01*
X137675073Y-43467753D01*
X137630398Y-43262386D01*
X137547664Y-43069185D01*
X137429862Y-42895133D01*
X137392398Y-42857669D01*
X137358913Y-42796346D01*
X137363897Y-42726654D01*
X137405769Y-42670721D01*
X137471233Y-42646304D01*
X137480108Y-42645989D01*
X171391521Y-42665949D01*
X171458549Y-42685673D01*
X171504273Y-42738504D01*
X171515448Y-42790005D01*
X171495344Y-87079696D01*
X171475629Y-87146727D01*
X171422804Y-87192458D01*
X171353641Y-87202370D01*
X171290099Y-87173316D01*
X171283663Y-87167321D01*
X171263867Y-87147525D01*
X171263862Y-87147521D01*
X171158392Y-87076137D01*
X171089813Y-87029721D01*
X171089811Y-87029720D01*
X171089808Y-87029718D01*
X170896613Y-86946987D01*
X170896602Y-86946984D01*
X170691250Y-86902312D01*
X170676492Y-86901433D01*
X170644038Y-86899500D01*
X166275962Y-86899500D01*
X166245416Y-86901319D01*
X166228749Y-86902312D01*
X166023397Y-86946984D01*
X166023386Y-86946987D01*
X165830191Y-87029718D01*
X165656137Y-87147521D01*
X165656132Y-87147525D01*
X165507525Y-87296132D01*
X165507521Y-87296137D01*
X165389718Y-87470191D01*
X165306987Y-87663386D01*
X165306984Y-87663397D01*
X165262312Y-87868749D01*
X165262312Y-87868755D01*
X165259500Y-87915962D01*
X165259500Y-92284038D01*
X165261440Y-92316602D01*
X165262312Y-92331250D01*
X165306984Y-92536602D01*
X165306987Y-92536613D01*
X165389718Y-92729808D01*
X165389720Y-92729811D01*
X165389721Y-92729813D01*
X165507523Y-92903865D01*
X165656135Y-93052477D01*
X165830187Y-93170279D01*
X165830189Y-93170280D01*
X165830191Y-93170281D01*
X165958987Y-93225435D01*
X166023388Y-93253013D01*
X166023396Y-93253014D01*
X166023397Y-93253015D01*
X166228749Y-93297687D01*
X166228750Y-93297687D01*
X166228755Y-93297688D01*
X166275962Y-93300500D01*
X166275973Y-93300500D01*
X170644027Y-93300500D01*
X170644038Y-93300500D01*
X170691245Y-93297688D01*
X170896612Y-93253013D01*
X171089813Y-93170279D01*
X171263865Y-93052477D01*
X171280920Y-93035421D01*
X171342240Y-93001936D01*
X171411932Y-93006919D01*
X171467866Y-93048789D01*
X171492285Y-93114253D01*
X171492601Y-93123158D01*
X171487158Y-105116056D01*
X171467443Y-105183087D01*
X171414618Y-105228818D01*
X171363158Y-105240000D01*
X148195704Y-105240000D01*
X148128665Y-105220315D01*
X148082910Y-105167511D01*
X148072966Y-105098353D01*
X148101991Y-105034797D01*
X148108023Y-105028319D01*
X148212477Y-104923865D01*
X148330279Y-104749813D01*
X148413013Y-104556612D01*
X148457688Y-104351245D01*
X148460500Y-104304038D01*
X148460500Y-99935962D01*
X148457688Y-99888755D01*
X148413013Y-99683388D01*
X148335853Y-99503203D01*
X148330281Y-99490191D01*
X148330280Y-99490189D01*
X148330279Y-99490187D01*
X148212477Y-99316135D01*
X148063865Y-99167523D01*
X147889813Y-99049721D01*
X147889811Y-99049720D01*
X147889808Y-99049718D01*
X147696613Y-98966987D01*
X147696602Y-98966984D01*
X147491250Y-98922312D01*
X147476492Y-98921433D01*
X147444038Y-98919500D01*
X143075962Y-98919500D01*
X143045416Y-98921319D01*
X143028749Y-98922312D01*
X142823397Y-98966984D01*
X142823386Y-98966987D01*
X142630191Y-99049718D01*
X142456137Y-99167521D01*
X142456132Y-99167525D01*
X142307525Y-99316132D01*
X142307521Y-99316137D01*
X142189718Y-99490191D01*
X142106987Y-99683386D01*
X142106984Y-99683397D01*
X142062312Y-99888749D01*
X142062312Y-99888755D01*
X142059500Y-99935962D01*
X142059500Y-104304038D01*
X142061484Y-104337360D01*
X142062312Y-104351250D01*
X142106984Y-104556602D01*
X142106987Y-104556613D01*
X142189718Y-104749808D01*
X142307521Y-104923862D01*
X142307525Y-104923867D01*
X142411977Y-105028319D01*
X142445462Y-105089642D01*
X142440478Y-105159334D01*
X142398606Y-105215267D01*
X142333142Y-105239684D01*
X142324296Y-105240000D01*
X134195704Y-105240000D01*
X134128665Y-105220315D01*
X134082910Y-105167511D01*
X134072966Y-105098353D01*
X134101991Y-105034797D01*
X134108023Y-105028319D01*
X134212477Y-104923865D01*
X134330279Y-104749813D01*
X134413013Y-104556612D01*
X134457688Y-104351245D01*
X134460500Y-104304038D01*
X134460500Y-99935962D01*
X134457688Y-99888755D01*
X134413013Y-99683388D01*
X134335853Y-99503203D01*
X134330281Y-99490191D01*
X134330280Y-99490189D01*
X134330279Y-99490187D01*
X134212477Y-99316135D01*
X134063865Y-99167523D01*
X133889813Y-99049721D01*
X133889811Y-99049720D01*
X133889808Y-99049718D01*
X133696613Y-98966987D01*
X133696602Y-98966984D01*
X133491250Y-98922312D01*
X133476492Y-98921433D01*
X133444038Y-98919500D01*
X129075962Y-98919500D01*
X129045416Y-98921319D01*
X129028749Y-98922312D01*
X128823397Y-98966984D01*
X128823386Y-98966987D01*
X128630191Y-99049718D01*
X128456137Y-99167521D01*
X128456132Y-99167525D01*
X128307525Y-99316132D01*
X128307521Y-99316137D01*
X128189718Y-99490191D01*
X128106987Y-99683386D01*
X128106984Y-99683397D01*
X128062312Y-99888749D01*
X128062312Y-99888755D01*
X128059500Y-99935962D01*
X128059500Y-104304038D01*
X128061484Y-104337360D01*
X128062312Y-104351250D01*
X128106984Y-104556602D01*
X128106987Y-104556613D01*
X128189718Y-104749808D01*
X128307521Y-104923862D01*
X128307525Y-104923867D01*
X128411977Y-105028319D01*
X128445462Y-105089642D01*
X128440478Y-105159334D01*
X128398606Y-105215267D01*
X128333142Y-105239684D01*
X128324296Y-105240000D01*
X109359030Y-105240000D01*
X109291991Y-105220315D01*
X109246236Y-105167511D01*
X109235030Y-105115933D01*
X109235074Y-105034797D01*
X109239808Y-96281384D01*
X113744573Y-96281384D01*
X113744573Y-96624021D01*
X113782931Y-96964471D01*
X113782934Y-96964485D01*
X113859175Y-97298519D01*
X113859176Y-97298521D01*
X113972337Y-97621919D01*
X114120995Y-97930610D01*
X114120997Y-97930613D01*
X114303284Y-98220721D01*
X114516907Y-98488596D01*
X114759180Y-98730869D01*
X115027055Y-98944492D01*
X115317163Y-99126779D01*
X115625858Y-99275439D01*
X115949256Y-99388600D01*
X116283290Y-99464842D01*
X116283299Y-99464843D01*
X116283304Y-99464844D01*
X116508238Y-99490187D01*
X116623755Y-99503202D01*
X116623758Y-99503203D01*
X116623761Y-99503203D01*
X116966388Y-99503203D01*
X116966389Y-99503202D01*
X117140384Y-99483598D01*
X117306841Y-99464844D01*
X117306844Y-99464843D01*
X117306856Y-99464842D01*
X117640890Y-99388600D01*
X117964288Y-99275439D01*
X118272983Y-99126779D01*
X118563091Y-98944492D01*
X118830966Y-98730869D01*
X119073239Y-98488596D01*
X119286862Y-98220721D01*
X119469149Y-97930613D01*
X119617809Y-97621918D01*
X119730970Y-97298520D01*
X119807212Y-96964486D01*
X119845573Y-96624015D01*
X119845573Y-96281391D01*
X119845572Y-96281384D01*
X159204678Y-96281384D01*
X159204678Y-96624021D01*
X159243036Y-96964471D01*
X159243039Y-96964485D01*
X159319280Y-97298519D01*
X159319281Y-97298521D01*
X159432442Y-97621919D01*
X159581100Y-97930610D01*
X159581102Y-97930613D01*
X159763389Y-98220721D01*
X159977012Y-98488596D01*
X160219285Y-98730869D01*
X160487160Y-98944492D01*
X160777268Y-99126779D01*
X161085963Y-99275439D01*
X161409361Y-99388600D01*
X161743395Y-99464842D01*
X161743404Y-99464843D01*
X161743409Y-99464844D01*
X161968343Y-99490187D01*
X162083860Y-99503202D01*
X162083863Y-99503203D01*
X162083866Y-99503203D01*
X162426493Y-99503203D01*
X162426494Y-99503202D01*
X162600489Y-99483598D01*
X162766946Y-99464844D01*
X162766949Y-99464843D01*
X162766961Y-99464842D01*
X163100995Y-99388600D01*
X163424393Y-99275439D01*
X163733088Y-99126779D01*
X164023196Y-98944492D01*
X164291071Y-98730869D01*
X164533344Y-98488596D01*
X164746967Y-98220721D01*
X164929254Y-97930613D01*
X165077914Y-97621918D01*
X165191075Y-97298520D01*
X165267317Y-96964486D01*
X165305678Y-96624015D01*
X165305678Y-96281391D01*
X165267317Y-95940920D01*
X165191075Y-95606886D01*
X165077914Y-95283488D01*
X164929254Y-94974793D01*
X164746967Y-94684685D01*
X164533344Y-94416810D01*
X164291071Y-94174537D01*
X164023196Y-93960914D01*
X163733088Y-93778627D01*
X163733085Y-93778625D01*
X163424394Y-93629967D01*
X163100996Y-93516806D01*
X163100994Y-93516805D01*
X162843202Y-93457965D01*
X162766961Y-93440564D01*
X162766958Y-93440563D01*
X162766946Y-93440561D01*
X162426496Y-93402203D01*
X162426490Y-93402203D01*
X162083866Y-93402203D01*
X162083859Y-93402203D01*
X161743409Y-93440561D01*
X161743395Y-93440564D01*
X161409361Y-93516805D01*
X161409359Y-93516806D01*
X161085961Y-93629967D01*
X160777270Y-93778625D01*
X160487161Y-93960913D01*
X160219285Y-94174536D01*
X159977011Y-94416810D01*
X159763388Y-94684686D01*
X159581100Y-94974795D01*
X159432442Y-95283486D01*
X159319281Y-95606884D01*
X159319280Y-95606886D01*
X159243039Y-95940920D01*
X159243036Y-95940934D01*
X159204678Y-96281384D01*
X119845572Y-96281384D01*
X119807212Y-95940920D01*
X119730970Y-95606886D01*
X119617809Y-95283488D01*
X119469149Y-94974793D01*
X119286862Y-94684685D01*
X119073239Y-94416810D01*
X118830966Y-94174537D01*
X118563091Y-93960914D01*
X118272983Y-93778627D01*
X118272980Y-93778625D01*
X117964289Y-93629967D01*
X117640891Y-93516806D01*
X117640889Y-93516805D01*
X117383097Y-93457965D01*
X117306856Y-93440564D01*
X117306853Y-93440563D01*
X117306841Y-93440561D01*
X116966391Y-93402203D01*
X116966385Y-93402203D01*
X116623761Y-93402203D01*
X116623754Y-93402203D01*
X116283304Y-93440561D01*
X116283290Y-93440564D01*
X115949256Y-93516805D01*
X115949254Y-93516806D01*
X115625856Y-93629967D01*
X115317165Y-93778625D01*
X115027056Y-93960913D01*
X114759180Y-94174536D01*
X114516906Y-94416810D01*
X114303283Y-94684686D01*
X114120995Y-94974795D01*
X113972337Y-95283486D01*
X113859176Y-95606884D01*
X113859175Y-95606886D01*
X113782934Y-95940920D01*
X113782931Y-95940934D01*
X113744573Y-96281384D01*
X109239808Y-96281384D01*
X109241655Y-92867290D01*
X109261376Y-92800263D01*
X109314205Y-92754537D01*
X109383368Y-92744631D01*
X109446908Y-92773690D01*
X109453336Y-92779678D01*
X109506135Y-92832477D01*
X109680187Y-92950279D01*
X109680189Y-92950280D01*
X109680191Y-92950281D01*
X109800817Y-93001936D01*
X109873388Y-93033013D01*
X109873396Y-93033014D01*
X109873397Y-93033015D01*
X110078749Y-93077687D01*
X110078750Y-93077687D01*
X110078755Y-93077688D01*
X110125962Y-93080500D01*
X110125973Y-93080500D01*
X114494027Y-93080500D01*
X114494038Y-93080500D01*
X114541245Y-93077688D01*
X114746612Y-93033013D01*
X114939813Y-92950279D01*
X115113865Y-92832477D01*
X115262477Y-92683865D01*
X115380279Y-92509813D01*
X115463013Y-92316612D01*
X115507688Y-92111245D01*
X115510500Y-92064038D01*
X115510500Y-87695962D01*
X115507688Y-87648755D01*
X115463013Y-87443388D01*
X115380279Y-87250187D01*
X115262477Y-87076135D01*
X115113865Y-86927523D01*
X114939813Y-86809721D01*
X114939811Y-86809720D01*
X114939808Y-86809718D01*
X114746613Y-86726987D01*
X114746602Y-86726984D01*
X114541250Y-86682312D01*
X114526492Y-86681433D01*
X114494038Y-86679500D01*
X110125962Y-86679500D01*
X110095416Y-86681319D01*
X110078749Y-86682312D01*
X109873397Y-86726984D01*
X109873386Y-86726987D01*
X109680191Y-86809718D01*
X109506137Y-86927521D01*
X109506132Y-86927525D01*
X109456568Y-86977089D01*
X109395245Y-87010573D01*
X109325553Y-87005588D01*
X109269620Y-86963717D01*
X109245204Y-86898252D01*
X109244889Y-86889371D01*
X109254836Y-68500247D01*
X163719500Y-68500247D01*
X163719500Y-71539752D01*
X163731131Y-71598229D01*
X163731132Y-71598230D01*
X163775447Y-71664552D01*
X163841769Y-71708867D01*
X163841770Y-71708868D01*
X163900247Y-71720499D01*
X163900250Y-71720500D01*
X163900252Y-71720500D01*
X166939750Y-71720500D01*
X166939751Y-71720499D01*
X166954568Y-71717552D01*
X166998229Y-71708868D01*
X166998229Y-71708867D01*
X166998231Y-71708867D01*
X167064552Y-71664552D01*
X167108867Y-71598231D01*
X167108867Y-71598229D01*
X167108868Y-71598229D01*
X167120499Y-71539752D01*
X167120500Y-71539750D01*
X167120500Y-68500249D01*
X167120499Y-68500247D01*
X167108868Y-68441770D01*
X167108867Y-68441769D01*
X167064552Y-68375447D01*
X166998230Y-68331132D01*
X166998229Y-68331131D01*
X166939752Y-68319500D01*
X166939748Y-68319500D01*
X163900252Y-68319500D01*
X163900247Y-68319500D01*
X163841770Y-68331131D01*
X163841769Y-68331132D01*
X163775447Y-68375447D01*
X163731132Y-68441769D01*
X163731131Y-68441770D01*
X163719500Y-68500247D01*
X109254836Y-68500247D01*
X109257773Y-63070247D01*
X156209500Y-63070247D01*
X156209500Y-66109752D01*
X156221131Y-66168229D01*
X156221132Y-66168230D01*
X156265447Y-66234552D01*
X156331769Y-66278867D01*
X156331770Y-66278868D01*
X156390247Y-66290499D01*
X156390250Y-66290500D01*
X156390252Y-66290500D01*
X159429750Y-66290500D01*
X159429751Y-66290499D01*
X159444568Y-66287552D01*
X159488229Y-66278868D01*
X159488229Y-66278867D01*
X159488231Y-66278867D01*
X159554552Y-66234552D01*
X159598867Y-66168231D01*
X159598867Y-66168229D01*
X159598868Y-66168229D01*
X159610499Y-66109752D01*
X159610500Y-66109750D01*
X159610500Y-63070249D01*
X159610499Y-63070247D01*
X159598868Y-63011770D01*
X159598867Y-63011769D01*
X159554552Y-62945447D01*
X159488230Y-62901132D01*
X159488229Y-62901131D01*
X159429752Y-62889500D01*
X159429748Y-62889500D01*
X156390252Y-62889500D01*
X156390247Y-62889500D01*
X156331770Y-62901131D01*
X156331769Y-62901132D01*
X156265447Y-62945447D01*
X156221132Y-63011769D01*
X156221131Y-63011770D01*
X156209500Y-63070247D01*
X109257773Y-63070247D01*
X109262366Y-54578549D01*
X134149500Y-54578549D01*
X134149500Y-54801450D01*
X134149501Y-54801466D01*
X134178594Y-55022452D01*
X134178595Y-55022457D01*
X134178596Y-55022463D01*
X134178597Y-55022465D01*
X134236290Y-55237780D01*
X134236293Y-55237790D01*
X134321593Y-55443722D01*
X134321595Y-55443726D01*
X134433052Y-55636774D01*
X134433057Y-55636780D01*
X134433058Y-55636782D01*
X134568751Y-55813622D01*
X134568757Y-55813629D01*
X134726370Y-55971242D01*
X134726376Y-55971247D01*
X134903226Y-56106948D01*
X135096274Y-56218405D01*
X135302219Y-56303710D01*
X135517537Y-56361404D01*
X135738543Y-56390500D01*
X135738550Y-56390500D01*
X135961450Y-56390500D01*
X135961457Y-56390500D01*
X136182463Y-56361404D01*
X136397781Y-56303710D01*
X136603726Y-56218405D01*
X136796774Y-56106948D01*
X136973624Y-55971247D01*
X137131247Y-55813624D01*
X137266948Y-55636774D01*
X137378405Y-55443726D01*
X137463710Y-55237781D01*
X137521404Y-55022463D01*
X137550500Y-54801457D01*
X137550500Y-54578543D01*
X137521404Y-54357537D01*
X137463710Y-54142219D01*
X137378405Y-53936274D01*
X137266948Y-53743226D01*
X137131247Y-53566376D01*
X137131242Y-53566370D01*
X136973629Y-53408757D01*
X136973622Y-53408751D01*
X136796782Y-53273058D01*
X136796780Y-53273057D01*
X136796774Y-53273052D01*
X136603726Y-53161595D01*
X136603722Y-53161593D01*
X136397790Y-53076293D01*
X136397783Y-53076291D01*
X136397781Y-53076290D01*
X136182463Y-53018596D01*
X136182457Y-53018595D01*
X136182452Y-53018594D01*
X135961466Y-52989501D01*
X135961463Y-52989500D01*
X135961457Y-52989500D01*
X135738543Y-52989500D01*
X135738537Y-52989500D01*
X135738533Y-52989501D01*
X135517547Y-53018594D01*
X135517540Y-53018595D01*
X135517537Y-53018596D01*
X135487565Y-53026627D01*
X135302219Y-53076290D01*
X135302209Y-53076293D01*
X135096277Y-53161593D01*
X135096273Y-53161595D01*
X134903226Y-53273052D01*
X134903217Y-53273058D01*
X134726377Y-53408751D01*
X134726370Y-53408757D01*
X134568757Y-53566370D01*
X134568751Y-53566377D01*
X134433058Y-53743217D01*
X134433052Y-53743226D01*
X134321595Y-53936273D01*
X134321593Y-53936277D01*
X134236293Y-54142209D01*
X134236290Y-54142219D01*
X134178597Y-54357534D01*
X134178594Y-54357547D01*
X134149501Y-54578533D01*
X134149500Y-54578549D01*
X109262366Y-54578549D01*
X109264399Y-50819415D01*
X113744573Y-50819415D01*
X113744573Y-51162052D01*
X113782931Y-51502502D01*
X113782933Y-51502514D01*
X113782934Y-51502517D01*
X113797933Y-51568229D01*
X113859175Y-51836550D01*
X113859176Y-51836552D01*
X113972337Y-52159950D01*
X114120995Y-52468641D01*
X114120997Y-52468644D01*
X114303284Y-52758752D01*
X114516907Y-53026627D01*
X114759180Y-53268900D01*
X115027055Y-53482523D01*
X115317163Y-53664810D01*
X115625858Y-53813470D01*
X115949256Y-53926631D01*
X116283290Y-54002873D01*
X116283299Y-54002874D01*
X116283304Y-54002875D01*
X116510270Y-54028447D01*
X116623755Y-54041233D01*
X116623758Y-54041234D01*
X116623761Y-54041234D01*
X116966388Y-54041234D01*
X116966389Y-54041233D01*
X117140384Y-54021629D01*
X117306841Y-54002875D01*
X117306844Y-54002874D01*
X117306856Y-54002873D01*
X117640890Y-53926631D01*
X117964288Y-53813470D01*
X118272983Y-53664810D01*
X118563091Y-53482523D01*
X118830966Y-53268900D01*
X119073239Y-53026627D01*
X119286862Y-52758752D01*
X119469149Y-52468644D01*
X119617809Y-52159949D01*
X119730970Y-51836551D01*
X119807212Y-51502517D01*
X119845573Y-51162046D01*
X119845573Y-50819422D01*
X119845572Y-50819415D01*
X159204678Y-50819415D01*
X159204678Y-51162052D01*
X159243036Y-51502502D01*
X159243038Y-51502514D01*
X159243039Y-51502517D01*
X159258038Y-51568229D01*
X159319280Y-51836550D01*
X159319281Y-51836552D01*
X159432442Y-52159950D01*
X159581100Y-52468641D01*
X159581102Y-52468644D01*
X159763389Y-52758752D01*
X159977012Y-53026627D01*
X160219285Y-53268900D01*
X160487160Y-53482523D01*
X160777268Y-53664810D01*
X161085963Y-53813470D01*
X161409361Y-53926631D01*
X161743395Y-54002873D01*
X161743404Y-54002874D01*
X161743409Y-54002875D01*
X161970375Y-54028447D01*
X162083860Y-54041233D01*
X162083863Y-54041234D01*
X162083866Y-54041234D01*
X162426493Y-54041234D01*
X162426494Y-54041233D01*
X162600489Y-54021629D01*
X162766946Y-54002875D01*
X162766949Y-54002874D01*
X162766961Y-54002873D01*
X163100995Y-53926631D01*
X163424393Y-53813470D01*
X163733088Y-53664810D01*
X164023196Y-53482523D01*
X164291071Y-53268900D01*
X164533344Y-53026627D01*
X164746967Y-52758752D01*
X164929254Y-52468644D01*
X165077914Y-52159949D01*
X165191075Y-51836551D01*
X165267317Y-51502517D01*
X165305678Y-51162046D01*
X165305678Y-50819422D01*
X165267317Y-50478951D01*
X165191075Y-50144917D01*
X165077914Y-49821519D01*
X165053223Y-49770247D01*
X166639500Y-49770247D01*
X166639500Y-51509752D01*
X166651131Y-51568229D01*
X166651132Y-51568230D01*
X166695447Y-51634552D01*
X166761769Y-51678867D01*
X166761770Y-51678868D01*
X166820247Y-51690499D01*
X166820250Y-51690500D01*
X166820252Y-51690500D01*
X168559750Y-51690500D01*
X168559751Y-51690499D01*
X168574568Y-51687552D01*
X168618229Y-51678868D01*
X168618229Y-51678867D01*
X168618231Y-51678867D01*
X168684552Y-51634552D01*
X168728867Y-51568231D01*
X168728867Y-51568229D01*
X168728868Y-51568229D01*
X168740499Y-51509752D01*
X168740500Y-51509750D01*
X168740500Y-49770249D01*
X168740499Y-49770247D01*
X168728868Y-49711770D01*
X168728867Y-49711769D01*
X168684552Y-49645447D01*
X168618230Y-49601132D01*
X168618229Y-49601131D01*
X168559752Y-49589500D01*
X168559748Y-49589500D01*
X166820252Y-49589500D01*
X166820247Y-49589500D01*
X166761770Y-49601131D01*
X166761769Y-49601132D01*
X166695447Y-49645447D01*
X166651132Y-49711769D01*
X166651131Y-49711770D01*
X166639500Y-49770247D01*
X165053223Y-49770247D01*
X164929254Y-49512824D01*
X164746967Y-49222716D01*
X164533344Y-48954841D01*
X164291071Y-48712568D01*
X164023196Y-48498945D01*
X163822831Y-48373047D01*
X163733085Y-48316656D01*
X163424394Y-48167998D01*
X163251456Y-48107485D01*
X163100996Y-48054837D01*
X163100994Y-48054836D01*
X162845542Y-47996530D01*
X166639500Y-47996530D01*
X166639500Y-48203469D01*
X166679868Y-48406412D01*
X166679870Y-48406420D01*
X166759058Y-48597596D01*
X166874024Y-48769657D01*
X167020342Y-48915975D01*
X167020345Y-48915977D01*
X167192402Y-49030941D01*
X167383580Y-49110130D01*
X167586530Y-49150499D01*
X167586534Y-49150500D01*
X167586535Y-49150500D01*
X167793466Y-49150500D01*
X167793467Y-49150499D01*
X167996420Y-49110130D01*
X168187598Y-49030941D01*
X168359655Y-48915977D01*
X168505977Y-48769655D01*
X168620941Y-48597598D01*
X168700130Y-48406420D01*
X168740500Y-48203465D01*
X168740500Y-47996535D01*
X168700130Y-47793580D01*
X168620941Y-47602402D01*
X168505977Y-47430345D01*
X168505975Y-47430342D01*
X168359657Y-47284024D01*
X168273626Y-47226541D01*
X168187598Y-47169059D01*
X167996420Y-47089870D01*
X167996412Y-47089868D01*
X167793469Y-47049500D01*
X167793465Y-47049500D01*
X167586535Y-47049500D01*
X167586530Y-47049500D01*
X167383587Y-47089868D01*
X167383579Y-47089870D01*
X167192403Y-47169058D01*
X167020342Y-47284024D01*
X166874024Y-47430342D01*
X166759058Y-47602403D01*
X166679870Y-47793579D01*
X166679868Y-47793587D01*
X166639500Y-47996530D01*
X162845542Y-47996530D01*
X162843202Y-47995996D01*
X162766961Y-47978595D01*
X162766958Y-47978594D01*
X162766946Y-47978592D01*
X162426496Y-47940234D01*
X162426490Y-47940234D01*
X162083866Y-47940234D01*
X162083859Y-47940234D01*
X161743409Y-47978592D01*
X161743395Y-47978595D01*
X161409361Y-48054836D01*
X161409359Y-48054837D01*
X161085961Y-48167998D01*
X160777270Y-48316656D01*
X160487161Y-48498944D01*
X160219285Y-48712567D01*
X159977011Y-48954841D01*
X159763388Y-49222717D01*
X159581100Y-49512826D01*
X159432442Y-49821517D01*
X159319281Y-50144915D01*
X159319280Y-50144917D01*
X159243039Y-50478951D01*
X159243036Y-50478965D01*
X159204678Y-50819415D01*
X119845572Y-50819415D01*
X119807212Y-50478951D01*
X119730970Y-50144917D01*
X119617809Y-49821519D01*
X119469149Y-49512824D01*
X119286862Y-49222716D01*
X119073239Y-48954841D01*
X118830966Y-48712568D01*
X118563091Y-48498945D01*
X118362726Y-48373047D01*
X118272980Y-48316656D01*
X117964289Y-48167998D01*
X117640891Y-48054837D01*
X117640889Y-48054836D01*
X117383097Y-47995996D01*
X117306856Y-47978595D01*
X117306853Y-47978594D01*
X117306841Y-47978592D01*
X116966391Y-47940234D01*
X116966385Y-47940234D01*
X116623761Y-47940234D01*
X116623754Y-47940234D01*
X116283304Y-47978592D01*
X116283290Y-47978595D01*
X115949256Y-48054836D01*
X115949254Y-48054837D01*
X115625856Y-48167998D01*
X115317165Y-48316656D01*
X115027056Y-48498944D01*
X114759180Y-48712567D01*
X114516906Y-48954841D01*
X114303283Y-49222717D01*
X114120995Y-49512826D01*
X113972337Y-49821517D01*
X113859176Y-50144915D01*
X113859175Y-50144917D01*
X113782934Y-50478951D01*
X113782931Y-50478965D01*
X113744573Y-50819415D01*
X109264399Y-50819415D01*
X109268762Y-42753386D01*
X109288483Y-42686361D01*
X109341312Y-42640635D01*
X109392830Y-42629457D01*
X131478297Y-42642456D01*
G37*
%TD.AperFunction*%
%TD*%
M02*
