%TF.GenerationSoftware,KiCad,Pcbnew,9.0.5*%
%TF.CreationDate,2025-12-11T06:11:38-03:00*%
%TF.ProjectId,stage power dron_v1,73746167-6520-4706-9f77-65722064726f,rev?*%
%TF.SameCoordinates,Original*%
%TF.FileFunction,Paste,Top*%
%TF.FilePolarity,Positive*%
%FSLAX46Y46*%
G04 Gerber Fmt 4.6, Leading zero omitted, Abs format (unit mm)*
G04 Created by KiCad (PCBNEW 9.0.5) date 2025-12-11 06:11:38*
%MOMM*%
%LPD*%
G01*
G04 APERTURE LIST*
G04 Aperture macros list*
%AMRoundRect*
0 Rectangle with rounded corners*
0 $1 Rounding radius*
0 $2 $3 $4 $5 $6 $7 $8 $9 X,Y pos of 4 corners*
0 Add a 4 corners polygon primitive as box body*
4,1,4,$2,$3,$4,$5,$6,$7,$8,$9,$2,$3,0*
0 Add four circle primitives for the rounded corners*
1,1,$1+$1,$2,$3*
1,1,$1+$1,$4,$5*
1,1,$1+$1,$6,$7*
1,1,$1+$1,$8,$9*
0 Add four rect primitives between the rounded corners*
20,1,$1+$1,$2,$3,$4,$5,0*
20,1,$1+$1,$4,$5,$6,$7,0*
20,1,$1+$1,$6,$7,$8,$9,0*
20,1,$1+$1,$8,$9,$2,$3,0*%
G04 Aperture macros list end*
%ADD10R,2.900000X5.400000*%
%ADD11RoundRect,0.250000X-0.550000X1.050000X-0.550000X-1.050000X0.550000X-1.050000X0.550000X1.050000X0*%
%ADD12RoundRect,0.250000X-0.650000X0.412500X-0.650000X-0.412500X0.650000X-0.412500X0.650000X0.412500X0*%
%ADD13RoundRect,0.250000X0.400000X0.625000X-0.400000X0.625000X-0.400000X-0.625000X0.400000X-0.625000X0*%
%ADD14R,0.800000X2.600000*%
%ADD15R,0.800000X1.710000*%
%ADD16R,9.660000X3.600000*%
%ADD17R,8.700000X2.750000*%
%ADD18R,10.000000X1.300000*%
%ADD19R,4.400000X0.890000*%
%ADD20RoundRect,0.250000X1.000000X-1.950000X1.000000X1.950000X-1.000000X1.950000X-1.000000X-1.950000X0*%
%ADD21RoundRect,0.250000X-1.950000X-1.000000X1.950000X-1.000000X1.950000X1.000000X-1.950000X1.000000X0*%
%ADD22RoundRect,0.250000X-1.000000X-0.650000X1.000000X-0.650000X1.000000X0.650000X-1.000000X0.650000X0*%
%ADD23RoundRect,0.250000X0.550000X-1.500000X0.550000X1.500000X-0.550000X1.500000X-0.550000X-1.500000X0*%
%ADD24RoundRect,0.250000X-0.600000X0.400000X-0.600000X-0.400000X0.600000X-0.400000X0.600000X0.400000X0*%
%ADD25RoundRect,0.250000X2.375000X-2.025000X2.375000X2.025000X-2.375000X2.025000X-2.375000X-2.025000X0*%
%ADD26RoundRect,0.250000X0.300000X-2.050000X0.300000X2.050000X-0.300000X2.050000X-0.300000X-2.050000X0*%
%ADD27RoundRect,0.250000X0.650000X-0.412500X0.650000X0.412500X-0.650000X0.412500X-0.650000X-0.412500X0*%
%ADD28RoundRect,0.250000X-0.625000X0.400000X-0.625000X-0.400000X0.625000X-0.400000X0.625000X0.400000X0*%
%ADD29RoundRect,0.225000X0.225000X0.375000X-0.225000X0.375000X-0.225000X-0.375000X0.225000X-0.375000X0*%
G04 APERTURE END LIST*
D10*
%TO.C,L1*%
X139750000Y-87190000D03*
X149650000Y-87190000D03*
%TD*%
D11*
%TO.C,C4*%
X121090000Y-61680000D03*
X121090000Y-65280000D03*
%TD*%
D12*
%TO.C,C1*%
X156300000Y-74237500D03*
X156300000Y-77362500D03*
%TD*%
D13*
%TO.C,R5*%
X128180000Y-69335000D03*
X125080000Y-69335000D03*
%TD*%
D14*
%TO.C,S1*%
X139630000Y-59315000D03*
X138430000Y-59315000D03*
X137230000Y-59315000D03*
X136030000Y-59315000D03*
D15*
X134830000Y-58870000D03*
X133630000Y-58870000D03*
X132430000Y-58870000D03*
X131230000Y-58870000D03*
D16*
X135430000Y-64945000D03*
D17*
X135430000Y-68120000D03*
D18*
X135430000Y-70145000D03*
D19*
X133030000Y-60170000D03*
%TD*%
D20*
%TO.C,C6*%
X150221280Y-66487829D03*
X150221280Y-58087829D03*
%TD*%
D21*
%TO.C,C10*%
X112657500Y-72750000D03*
X121057500Y-72750000D03*
%TD*%
D22*
%TO.C,D2*%
X139082500Y-78020000D03*
X143082500Y-78020000D03*
%TD*%
D13*
%TO.C,R4*%
X128180000Y-65735000D03*
X125080000Y-65735000D03*
%TD*%
%TO.C,R2*%
X127805000Y-58810000D03*
X124705000Y-58810000D03*
%TD*%
D23*
%TO.C,C9*%
X156750000Y-87640000D03*
X156750000Y-82040000D03*
%TD*%
D24*
%TO.C,D5*%
X148815000Y-74265000D03*
X148815000Y-77765000D03*
%TD*%
D13*
%TO.C,R3*%
X122730000Y-57570000D03*
X119630000Y-57570000D03*
%TD*%
D25*
%TO.C,U1*%
X127395000Y-81555000D03*
X132945000Y-81555000D03*
X127395000Y-76705000D03*
X132945000Y-76705000D03*
D26*
X126770000Y-88280000D03*
X128470000Y-88280000D03*
X130170000Y-88280000D03*
X131870000Y-88280000D03*
X133570000Y-88280000D03*
%TD*%
D27*
%TO.C,C8*%
X143062868Y-63522897D03*
X143062868Y-60397897D03*
%TD*%
D28*
%TO.C,R1*%
X152590000Y-74220000D03*
X152590000Y-77320000D03*
%TD*%
D29*
%TO.C,D3*%
X153067500Y-51380000D03*
X149767500Y-51380000D03*
%TD*%
M02*
