%TF.GenerationSoftware,KiCad,Pcbnew,9.0.5*%
%TF.CreationDate,2025-12-11T06:11:38-03:00*%
%TF.ProjectId,stage power dron_v1,73746167-6520-4706-9f77-65722064726f,rev?*%
%TF.SameCoordinates,Original*%
%TF.FileFunction,Legend,Bot*%
%TF.FilePolarity,Positive*%
%FSLAX46Y46*%
G04 Gerber Fmt 4.6, Leading zero omitted, Abs format (unit mm)*
G04 Created by KiCad (PCBNEW 9.0.5) date 2025-12-11 06:11:38*
%MOMM*%
%LPD*%
G01*
G04 APERTURE LIST*
%ADD10C,0.150000*%
%ADD11C,0.120000*%
G04 APERTURE END LIST*
D10*
X133558095Y-49786133D02*
X134320000Y-49786133D01*
X133939047Y-49405180D02*
X133939047Y-50167085D01*
X135319999Y-49405180D02*
X134748571Y-49405180D01*
X135034285Y-49405180D02*
X135034285Y-50405180D01*
X135034285Y-50405180D02*
X134939047Y-50262323D01*
X134939047Y-50262323D02*
X134843809Y-50167085D01*
X134843809Y-50167085D02*
X134748571Y-50119466D01*
X135700952Y-50309942D02*
X135748571Y-50357561D01*
X135748571Y-50357561D02*
X135843809Y-50405180D01*
X135843809Y-50405180D02*
X136081904Y-50405180D01*
X136081904Y-50405180D02*
X136177142Y-50357561D01*
X136177142Y-50357561D02*
X136224761Y-50309942D01*
X136224761Y-50309942D02*
X136272380Y-50214704D01*
X136272380Y-50214704D02*
X136272380Y-50119466D01*
X136272380Y-50119466D02*
X136224761Y-49976609D01*
X136224761Y-49976609D02*
X135653333Y-49405180D01*
X135653333Y-49405180D02*
X136272380Y-49405180D01*
X136558095Y-50405180D02*
X136891428Y-49405180D01*
X136891428Y-49405180D02*
X137224761Y-50405180D01*
X140978095Y-50377561D02*
X140882857Y-50425180D01*
X140882857Y-50425180D02*
X140740000Y-50425180D01*
X140740000Y-50425180D02*
X140597143Y-50377561D01*
X140597143Y-50377561D02*
X140501905Y-50282323D01*
X140501905Y-50282323D02*
X140454286Y-50187085D01*
X140454286Y-50187085D02*
X140406667Y-49996609D01*
X140406667Y-49996609D02*
X140406667Y-49853752D01*
X140406667Y-49853752D02*
X140454286Y-49663276D01*
X140454286Y-49663276D02*
X140501905Y-49568038D01*
X140501905Y-49568038D02*
X140597143Y-49472800D01*
X140597143Y-49472800D02*
X140740000Y-49425180D01*
X140740000Y-49425180D02*
X140835238Y-49425180D01*
X140835238Y-49425180D02*
X140978095Y-49472800D01*
X140978095Y-49472800D02*
X141025714Y-49520419D01*
X141025714Y-49520419D02*
X141025714Y-49853752D01*
X141025714Y-49853752D02*
X140835238Y-49853752D01*
X141454286Y-49425180D02*
X141454286Y-50425180D01*
X141454286Y-50425180D02*
X142025714Y-49425180D01*
X142025714Y-49425180D02*
X142025714Y-50425180D01*
X142501905Y-49425180D02*
X142501905Y-50425180D01*
X142501905Y-50425180D02*
X142740000Y-50425180D01*
X142740000Y-50425180D02*
X142882857Y-50377561D01*
X142882857Y-50377561D02*
X142978095Y-50282323D01*
X142978095Y-50282323D02*
X143025714Y-50187085D01*
X143025714Y-50187085D02*
X143073333Y-49996609D01*
X143073333Y-49996609D02*
X143073333Y-49853752D01*
X143073333Y-49853752D02*
X143025714Y-49663276D01*
X143025714Y-49663276D02*
X142978095Y-49568038D01*
X142978095Y-49568038D02*
X142882857Y-49472800D01*
X142882857Y-49472800D02*
X142740000Y-49425180D01*
X142740000Y-49425180D02*
X142501905Y-49425180D01*
X163077866Y-61902571D02*
X163077866Y-62664476D01*
X163458819Y-62283523D02*
X162696914Y-62283523D01*
X162935009Y-63473999D02*
X162982628Y-63616856D01*
X162982628Y-63616856D02*
X163030247Y-63664475D01*
X163030247Y-63664475D02*
X163125485Y-63712094D01*
X163125485Y-63712094D02*
X163268342Y-63712094D01*
X163268342Y-63712094D02*
X163363580Y-63664475D01*
X163363580Y-63664475D02*
X163411200Y-63616856D01*
X163411200Y-63616856D02*
X163458819Y-63521618D01*
X163458819Y-63521618D02*
X163458819Y-63140666D01*
X163458819Y-63140666D02*
X162458819Y-63140666D01*
X162458819Y-63140666D02*
X162458819Y-63473999D01*
X162458819Y-63473999D02*
X162506438Y-63569237D01*
X162506438Y-63569237D02*
X162554057Y-63616856D01*
X162554057Y-63616856D02*
X162649295Y-63664475D01*
X162649295Y-63664475D02*
X162744533Y-63664475D01*
X162744533Y-63664475D02*
X162839771Y-63616856D01*
X162839771Y-63616856D02*
X162887390Y-63569237D01*
X162887390Y-63569237D02*
X162935009Y-63473999D01*
X162935009Y-63473999D02*
X162935009Y-63140666D01*
X163173104Y-64093047D02*
X163173104Y-64569237D01*
X163458819Y-63997809D02*
X162458819Y-64331142D01*
X162458819Y-64331142D02*
X163458819Y-64664475D01*
X162458819Y-64854952D02*
X162458819Y-65426380D01*
X163458819Y-65140666D02*
X162458819Y-65140666D01*
X162458819Y-65616857D02*
X162458819Y-66188285D01*
X163458819Y-65902571D02*
X162458819Y-65902571D01*
X162572438Y-57768095D02*
X162524819Y-57672857D01*
X162524819Y-57672857D02*
X162524819Y-57530000D01*
X162524819Y-57530000D02*
X162572438Y-57387143D01*
X162572438Y-57387143D02*
X162667676Y-57291905D01*
X162667676Y-57291905D02*
X162762914Y-57244286D01*
X162762914Y-57244286D02*
X162953390Y-57196667D01*
X162953390Y-57196667D02*
X163096247Y-57196667D01*
X163096247Y-57196667D02*
X163286723Y-57244286D01*
X163286723Y-57244286D02*
X163381961Y-57291905D01*
X163381961Y-57291905D02*
X163477200Y-57387143D01*
X163477200Y-57387143D02*
X163524819Y-57530000D01*
X163524819Y-57530000D02*
X163524819Y-57625238D01*
X163524819Y-57625238D02*
X163477200Y-57768095D01*
X163477200Y-57768095D02*
X163429580Y-57815714D01*
X163429580Y-57815714D02*
X163096247Y-57815714D01*
X163096247Y-57815714D02*
X163096247Y-57625238D01*
X163524819Y-58244286D02*
X162524819Y-58244286D01*
X162524819Y-58244286D02*
X163524819Y-58815714D01*
X163524819Y-58815714D02*
X162524819Y-58815714D01*
X163524819Y-59291905D02*
X162524819Y-59291905D01*
X162524819Y-59291905D02*
X162524819Y-59530000D01*
X162524819Y-59530000D02*
X162572438Y-59672857D01*
X162572438Y-59672857D02*
X162667676Y-59768095D01*
X162667676Y-59768095D02*
X162762914Y-59815714D01*
X162762914Y-59815714D02*
X162953390Y-59863333D01*
X162953390Y-59863333D02*
X163096247Y-59863333D01*
X163096247Y-59863333D02*
X163286723Y-59815714D01*
X163286723Y-59815714D02*
X163381961Y-59768095D01*
X163381961Y-59768095D02*
X163477200Y-59672857D01*
X163477200Y-59672857D02*
X163524819Y-59530000D01*
X163524819Y-59530000D02*
X163524819Y-59291905D01*
X160289819Y-61530476D02*
X161004104Y-61530476D01*
X161004104Y-61530476D02*
X161146961Y-61482857D01*
X161146961Y-61482857D02*
X161242200Y-61387619D01*
X161242200Y-61387619D02*
X161289819Y-61244762D01*
X161289819Y-61244762D02*
X161289819Y-61149524D01*
X161289819Y-62530476D02*
X161289819Y-61959048D01*
X161289819Y-62244762D02*
X160289819Y-62244762D01*
X160289819Y-62244762D02*
X160432676Y-62149524D01*
X160432676Y-62149524D02*
X160527914Y-62054286D01*
X160527914Y-62054286D02*
X160575533Y-61959048D01*
X161289819Y-63482857D02*
X161289819Y-62911429D01*
X161289819Y-63197143D02*
X160289819Y-63197143D01*
X160289819Y-63197143D02*
X160432676Y-63101905D01*
X160432676Y-63101905D02*
X160527914Y-63006667D01*
X160527914Y-63006667D02*
X160575533Y-62911429D01*
X140398333Y-51504819D02*
X140398333Y-52219104D01*
X140398333Y-52219104D02*
X140445952Y-52361961D01*
X140445952Y-52361961D02*
X140541190Y-52457200D01*
X140541190Y-52457200D02*
X140684047Y-52504819D01*
X140684047Y-52504819D02*
X140779285Y-52504819D01*
X139493571Y-51504819D02*
X139684047Y-51504819D01*
X139684047Y-51504819D02*
X139779285Y-51552438D01*
X139779285Y-51552438D02*
X139826904Y-51600057D01*
X139826904Y-51600057D02*
X139922142Y-51742914D01*
X139922142Y-51742914D02*
X139969761Y-51933390D01*
X139969761Y-51933390D02*
X139969761Y-52314342D01*
X139969761Y-52314342D02*
X139922142Y-52409580D01*
X139922142Y-52409580D02*
X139874523Y-52457200D01*
X139874523Y-52457200D02*
X139779285Y-52504819D01*
X139779285Y-52504819D02*
X139588809Y-52504819D01*
X139588809Y-52504819D02*
X139493571Y-52457200D01*
X139493571Y-52457200D02*
X139445952Y-52409580D01*
X139445952Y-52409580D02*
X139398333Y-52314342D01*
X139398333Y-52314342D02*
X139398333Y-52076247D01*
X139398333Y-52076247D02*
X139445952Y-51981009D01*
X139445952Y-51981009D02*
X139493571Y-51933390D01*
X139493571Y-51933390D02*
X139588809Y-51885771D01*
X139588809Y-51885771D02*
X139779285Y-51885771D01*
X139779285Y-51885771D02*
X139874523Y-51933390D01*
X139874523Y-51933390D02*
X139922142Y-51981009D01*
X139922142Y-51981009D02*
X139969761Y-52076247D01*
D11*
%TO.C,J11*%
X154100000Y-56970000D02*
X161720000Y-56970000D01*
X154100000Y-67130000D02*
X154100000Y-56970000D01*
X155370000Y-56970000D02*
X155370000Y-67130000D01*
X161720000Y-56970000D02*
X161720000Y-67130000D01*
X161720000Y-67130000D02*
X154100000Y-67130000D01*
%TO.C,J6*%
X133310000Y-50880000D02*
X143470000Y-50880000D01*
X133310000Y-57230000D02*
X143470000Y-57230000D01*
X133310000Y-58500000D02*
X133310000Y-50880000D01*
X143470000Y-50880000D02*
X143470000Y-58500000D01*
X143470000Y-58500000D02*
X133310000Y-58500000D01*
%TD*%
M02*
