%TF.GenerationSoftware,KiCad,Pcbnew,9.0.5*%
%TF.CreationDate,2025-12-11T06:11:38-03:00*%
%TF.ProjectId,stage power dron_v1,73746167-6520-4706-9f77-65722064726f,rev?*%
%TF.SameCoordinates,Original*%
%TF.FileFunction,Legend,Top*%
%TF.FilePolarity,Positive*%
%FSLAX46Y46*%
G04 Gerber Fmt 4.6, Leading zero omitted, Abs format (unit mm)*
G04 Created by KiCad (PCBNEW 9.0.5) date 2025-12-11 06:11:38*
%MOMM*%
%LPD*%
G01*
G04 APERTURE LIST*
%ADD10C,0.150000*%
%ADD11C,0.250000*%
%ADD12C,0.200000*%
%ADD13C,0.254000*%
%ADD14C,0.120000*%
%ADD15C,0.100000*%
G04 APERTURE END LIST*
D10*
X166209160Y-45994295D02*
X166209160Y-45194295D01*
X166399636Y-46070485D02*
X167009159Y-46070485D01*
X167161540Y-45956200D02*
X167275826Y-45994295D01*
X167275826Y-45994295D02*
X167466302Y-45994295D01*
X167466302Y-45994295D02*
X167542493Y-45956200D01*
X167542493Y-45956200D02*
X167580588Y-45918104D01*
X167580588Y-45918104D02*
X167618683Y-45841914D01*
X167618683Y-45841914D02*
X167618683Y-45765723D01*
X167618683Y-45765723D02*
X167580588Y-45689533D01*
X167580588Y-45689533D02*
X167542493Y-45651438D01*
X167542493Y-45651438D02*
X167466302Y-45613342D01*
X167466302Y-45613342D02*
X167313921Y-45575247D01*
X167313921Y-45575247D02*
X167237731Y-45537152D01*
X167237731Y-45537152D02*
X167199636Y-45499057D01*
X167199636Y-45499057D02*
X167161540Y-45422866D01*
X167161540Y-45422866D02*
X167161540Y-45346676D01*
X167161540Y-45346676D02*
X167199636Y-45270485D01*
X167199636Y-45270485D02*
X167237731Y-45232390D01*
X167237731Y-45232390D02*
X167313921Y-45194295D01*
X167313921Y-45194295D02*
X167504398Y-45194295D01*
X167504398Y-45194295D02*
X167618683Y-45232390D01*
X167961541Y-45994295D02*
X167961541Y-45194295D01*
X168761540Y-45232390D02*
X168685350Y-45194295D01*
X168685350Y-45194295D02*
X168571064Y-45194295D01*
X168571064Y-45194295D02*
X168456778Y-45232390D01*
X168456778Y-45232390D02*
X168380588Y-45308580D01*
X168380588Y-45308580D02*
X168342493Y-45384771D01*
X168342493Y-45384771D02*
X168304397Y-45537152D01*
X168304397Y-45537152D02*
X168304397Y-45651438D01*
X168304397Y-45651438D02*
X168342493Y-45803819D01*
X168342493Y-45803819D02*
X168380588Y-45880009D01*
X168380588Y-45880009D02*
X168456778Y-45956200D01*
X168456778Y-45956200D02*
X168571064Y-45994295D01*
X168571064Y-45994295D02*
X168647255Y-45994295D01*
X168647255Y-45994295D02*
X168761540Y-45956200D01*
X168761540Y-45956200D02*
X168799636Y-45918104D01*
X168799636Y-45918104D02*
X168799636Y-45651438D01*
X168799636Y-45651438D02*
X168647255Y-45651438D01*
D11*
X164312000Y-83808384D02*
X164312000Y-82665527D01*
X163676972Y-90122000D02*
X164819830Y-90122000D01*
X164248401Y-90693428D02*
X164248401Y-89550571D01*
D10*
X165525826Y-53255247D02*
X165640112Y-53293342D01*
X165640112Y-53293342D02*
X165678207Y-53331438D01*
X165678207Y-53331438D02*
X165716303Y-53407628D01*
X165716303Y-53407628D02*
X165716303Y-53521914D01*
X165716303Y-53521914D02*
X165678207Y-53598104D01*
X165678207Y-53598104D02*
X165640112Y-53636200D01*
X165640112Y-53636200D02*
X165563922Y-53674295D01*
X165563922Y-53674295D02*
X165259160Y-53674295D01*
X165259160Y-53674295D02*
X165259160Y-52874295D01*
X165259160Y-52874295D02*
X165525826Y-52874295D01*
X165525826Y-52874295D02*
X165602017Y-52912390D01*
X165602017Y-52912390D02*
X165640112Y-52950485D01*
X165640112Y-52950485D02*
X165678207Y-53026676D01*
X165678207Y-53026676D02*
X165678207Y-53102866D01*
X165678207Y-53102866D02*
X165640112Y-53179057D01*
X165640112Y-53179057D02*
X165602017Y-53217152D01*
X165602017Y-53217152D02*
X165525826Y-53255247D01*
X165525826Y-53255247D02*
X165259160Y-53255247D01*
X166021064Y-53445723D02*
X166402017Y-53445723D01*
X165944874Y-53674295D02*
X166211541Y-52874295D01*
X166211541Y-52874295D02*
X166478207Y-53674295D01*
X166630588Y-52874295D02*
X167087731Y-52874295D01*
X166859159Y-53674295D02*
X166859159Y-52874295D01*
X167240112Y-52874295D02*
X167697255Y-52874295D01*
X167468683Y-53674295D02*
X167468683Y-52874295D01*
X167773446Y-53750485D02*
X168382969Y-53750485D01*
X168535350Y-53636200D02*
X168649636Y-53674295D01*
X168649636Y-53674295D02*
X168840112Y-53674295D01*
X168840112Y-53674295D02*
X168916303Y-53636200D01*
X168916303Y-53636200D02*
X168954398Y-53598104D01*
X168954398Y-53598104D02*
X168992493Y-53521914D01*
X168992493Y-53521914D02*
X168992493Y-53445723D01*
X168992493Y-53445723D02*
X168954398Y-53369533D01*
X168954398Y-53369533D02*
X168916303Y-53331438D01*
X168916303Y-53331438D02*
X168840112Y-53293342D01*
X168840112Y-53293342D02*
X168687731Y-53255247D01*
X168687731Y-53255247D02*
X168611541Y-53217152D01*
X168611541Y-53217152D02*
X168573446Y-53179057D01*
X168573446Y-53179057D02*
X168535350Y-53102866D01*
X168535350Y-53102866D02*
X168535350Y-53026676D01*
X168535350Y-53026676D02*
X168573446Y-52950485D01*
X168573446Y-52950485D02*
X168611541Y-52912390D01*
X168611541Y-52912390D02*
X168687731Y-52874295D01*
X168687731Y-52874295D02*
X168878208Y-52874295D01*
X168878208Y-52874295D02*
X168992493Y-52912390D01*
X169335351Y-53674295D02*
X169335351Y-52874295D01*
X170135350Y-52912390D02*
X170059160Y-52874295D01*
X170059160Y-52874295D02*
X169944874Y-52874295D01*
X169944874Y-52874295D02*
X169830588Y-52912390D01*
X169830588Y-52912390D02*
X169754398Y-52988580D01*
X169754398Y-52988580D02*
X169716303Y-53064771D01*
X169716303Y-53064771D02*
X169678207Y-53217152D01*
X169678207Y-53217152D02*
X169678207Y-53331438D01*
X169678207Y-53331438D02*
X169716303Y-53483819D01*
X169716303Y-53483819D02*
X169754398Y-53560009D01*
X169754398Y-53560009D02*
X169830588Y-53636200D01*
X169830588Y-53636200D02*
X169944874Y-53674295D01*
X169944874Y-53674295D02*
X170021065Y-53674295D01*
X170021065Y-53674295D02*
X170135350Y-53636200D01*
X170135350Y-53636200D02*
X170173446Y-53598104D01*
X170173446Y-53598104D02*
X170173446Y-53331438D01*
X170173446Y-53331438D02*
X170021065Y-53331438D01*
D11*
X116001615Y-89972000D02*
X117144473Y-89972000D01*
X116573044Y-90543428D02*
X116573044Y-89400571D01*
D12*
X152172857Y-91077275D02*
X152172857Y-90077275D01*
X152172857Y-90077275D02*
X152506190Y-90791560D01*
X152506190Y-90791560D02*
X152839523Y-90077275D01*
X152839523Y-90077275D02*
X152839523Y-91077275D01*
X153268095Y-90791560D02*
X153744285Y-90791560D01*
X153172857Y-91077275D02*
X153506190Y-90077275D01*
X153506190Y-90077275D02*
X153839523Y-91077275D01*
X154696666Y-90124894D02*
X154601428Y-90077275D01*
X154601428Y-90077275D02*
X154458571Y-90077275D01*
X154458571Y-90077275D02*
X154315714Y-90124894D01*
X154315714Y-90124894D02*
X154220476Y-90220132D01*
X154220476Y-90220132D02*
X154172857Y-90315370D01*
X154172857Y-90315370D02*
X154125238Y-90505846D01*
X154125238Y-90505846D02*
X154125238Y-90648703D01*
X154125238Y-90648703D02*
X154172857Y-90839179D01*
X154172857Y-90839179D02*
X154220476Y-90934417D01*
X154220476Y-90934417D02*
X154315714Y-91029656D01*
X154315714Y-91029656D02*
X154458571Y-91077275D01*
X154458571Y-91077275D02*
X154553809Y-91077275D01*
X154553809Y-91077275D02*
X154696666Y-91029656D01*
X154696666Y-91029656D02*
X154744285Y-90982036D01*
X154744285Y-90982036D02*
X154744285Y-90648703D01*
X154744285Y-90648703D02*
X154553809Y-90648703D01*
X155172857Y-91077275D02*
X155172857Y-90077275D01*
X155172857Y-90077275D02*
X155744285Y-91077275D01*
X155744285Y-91077275D02*
X155744285Y-90077275D01*
X156220476Y-90553465D02*
X156553809Y-90553465D01*
X156696666Y-91077275D02*
X156220476Y-91077275D01*
X156220476Y-91077275D02*
X156220476Y-90077275D01*
X156220476Y-90077275D02*
X156696666Y-90077275D01*
X156982381Y-90077275D02*
X157553809Y-90077275D01*
X157268095Y-91077275D02*
X157268095Y-90077275D01*
X157887143Y-91077275D02*
X157887143Y-90077275D01*
X158934761Y-90982036D02*
X158887142Y-91029656D01*
X158887142Y-91029656D02*
X158744285Y-91077275D01*
X158744285Y-91077275D02*
X158649047Y-91077275D01*
X158649047Y-91077275D02*
X158506190Y-91029656D01*
X158506190Y-91029656D02*
X158410952Y-90934417D01*
X158410952Y-90934417D02*
X158363333Y-90839179D01*
X158363333Y-90839179D02*
X158315714Y-90648703D01*
X158315714Y-90648703D02*
X158315714Y-90505846D01*
X158315714Y-90505846D02*
X158363333Y-90315370D01*
X158363333Y-90315370D02*
X158410952Y-90220132D01*
X158410952Y-90220132D02*
X158506190Y-90124894D01*
X158506190Y-90124894D02*
X158649047Y-90077275D01*
X158649047Y-90077275D02*
X158744285Y-90077275D01*
X158744285Y-90077275D02*
X158887142Y-90124894D01*
X158887142Y-90124894D02*
X158934761Y-90172513D01*
X151815714Y-92687219D02*
X151815714Y-91687219D01*
X152387142Y-92687219D02*
X151958571Y-92115790D01*
X152387142Y-91687219D02*
X151815714Y-92258647D01*
X152815714Y-92163409D02*
X153149047Y-92163409D01*
X153291904Y-92687219D02*
X152815714Y-92687219D01*
X152815714Y-92687219D02*
X152815714Y-91687219D01*
X152815714Y-91687219D02*
X153291904Y-91687219D01*
X153720476Y-92163409D02*
X154053809Y-92163409D01*
X154196666Y-92687219D02*
X153720476Y-92687219D01*
X153720476Y-92687219D02*
X153720476Y-91687219D01*
X153720476Y-91687219D02*
X154196666Y-91687219D01*
X154625238Y-92687219D02*
X154625238Y-91687219D01*
X154625238Y-91687219D02*
X155006190Y-91687219D01*
X155006190Y-91687219D02*
X155101428Y-91734838D01*
X155101428Y-91734838D02*
X155149047Y-91782457D01*
X155149047Y-91782457D02*
X155196666Y-91877695D01*
X155196666Y-91877695D02*
X155196666Y-92020552D01*
X155196666Y-92020552D02*
X155149047Y-92115790D01*
X155149047Y-92115790D02*
X155101428Y-92163409D01*
X155101428Y-92163409D02*
X155006190Y-92211028D01*
X155006190Y-92211028D02*
X154625238Y-92211028D01*
X155625238Y-92306266D02*
X156387143Y-92306266D01*
X157053809Y-91687219D02*
X157244285Y-91687219D01*
X157244285Y-91687219D02*
X157339523Y-91734838D01*
X157339523Y-91734838D02*
X157434761Y-91830076D01*
X157434761Y-91830076D02*
X157482380Y-92020552D01*
X157482380Y-92020552D02*
X157482380Y-92353885D01*
X157482380Y-92353885D02*
X157434761Y-92544361D01*
X157434761Y-92544361D02*
X157339523Y-92639600D01*
X157339523Y-92639600D02*
X157244285Y-92687219D01*
X157244285Y-92687219D02*
X157053809Y-92687219D01*
X157053809Y-92687219D02*
X156958571Y-92639600D01*
X156958571Y-92639600D02*
X156863333Y-92544361D01*
X156863333Y-92544361D02*
X156815714Y-92353885D01*
X156815714Y-92353885D02*
X156815714Y-92020552D01*
X156815714Y-92020552D02*
X156863333Y-91830076D01*
X156863333Y-91830076D02*
X156958571Y-91734838D01*
X156958571Y-91734838D02*
X157053809Y-91687219D01*
X157910952Y-91687219D02*
X157910952Y-92496742D01*
X157910952Y-92496742D02*
X157958571Y-92591980D01*
X157958571Y-92591980D02*
X158006190Y-92639600D01*
X158006190Y-92639600D02*
X158101428Y-92687219D01*
X158101428Y-92687219D02*
X158291904Y-92687219D01*
X158291904Y-92687219D02*
X158387142Y-92639600D01*
X158387142Y-92639600D02*
X158434761Y-92591980D01*
X158434761Y-92591980D02*
X158482380Y-92496742D01*
X158482380Y-92496742D02*
X158482380Y-91687219D01*
X158815714Y-91687219D02*
X159387142Y-91687219D01*
X159101428Y-92687219D02*
X159101428Y-91687219D01*
X141950476Y-70077275D02*
X141950476Y-69077275D01*
X141950476Y-69077275D02*
X142331428Y-69077275D01*
X142331428Y-69077275D02*
X142426666Y-69124894D01*
X142426666Y-69124894D02*
X142474285Y-69172513D01*
X142474285Y-69172513D02*
X142521904Y-69267751D01*
X142521904Y-69267751D02*
X142521904Y-69410608D01*
X142521904Y-69410608D02*
X142474285Y-69505846D01*
X142474285Y-69505846D02*
X142426666Y-69553465D01*
X142426666Y-69553465D02*
X142331428Y-69601084D01*
X142331428Y-69601084D02*
X141950476Y-69601084D01*
X143140952Y-69077275D02*
X143331428Y-69077275D01*
X143331428Y-69077275D02*
X143426666Y-69124894D01*
X143426666Y-69124894D02*
X143521904Y-69220132D01*
X143521904Y-69220132D02*
X143569523Y-69410608D01*
X143569523Y-69410608D02*
X143569523Y-69743941D01*
X143569523Y-69743941D02*
X143521904Y-69934417D01*
X143521904Y-69934417D02*
X143426666Y-70029656D01*
X143426666Y-70029656D02*
X143331428Y-70077275D01*
X143331428Y-70077275D02*
X143140952Y-70077275D01*
X143140952Y-70077275D02*
X143045714Y-70029656D01*
X143045714Y-70029656D02*
X142950476Y-69934417D01*
X142950476Y-69934417D02*
X142902857Y-69743941D01*
X142902857Y-69743941D02*
X142902857Y-69410608D01*
X142902857Y-69410608D02*
X142950476Y-69220132D01*
X142950476Y-69220132D02*
X143045714Y-69124894D01*
X143045714Y-69124894D02*
X143140952Y-69077275D01*
X143902857Y-69077275D02*
X144140952Y-70077275D01*
X144140952Y-70077275D02*
X144331428Y-69362989D01*
X144331428Y-69362989D02*
X144521904Y-70077275D01*
X144521904Y-70077275D02*
X144760000Y-69077275D01*
X145140952Y-69553465D02*
X145474285Y-69553465D01*
X145617142Y-70077275D02*
X145140952Y-70077275D01*
X145140952Y-70077275D02*
X145140952Y-69077275D01*
X145140952Y-69077275D02*
X145617142Y-69077275D01*
X146617142Y-70077275D02*
X146283809Y-69601084D01*
X146045714Y-70077275D02*
X146045714Y-69077275D01*
X146045714Y-69077275D02*
X146426666Y-69077275D01*
X146426666Y-69077275D02*
X146521904Y-69124894D01*
X146521904Y-69124894D02*
X146569523Y-69172513D01*
X146569523Y-69172513D02*
X146617142Y-69267751D01*
X146617142Y-69267751D02*
X146617142Y-69410608D01*
X146617142Y-69410608D02*
X146569523Y-69505846D01*
X146569523Y-69505846D02*
X146521904Y-69553465D01*
X146521904Y-69553465D02*
X146426666Y-69601084D01*
X146426666Y-69601084D02*
X146045714Y-69601084D01*
X142212381Y-71639600D02*
X142355238Y-71687219D01*
X142355238Y-71687219D02*
X142593333Y-71687219D01*
X142593333Y-71687219D02*
X142688571Y-71639600D01*
X142688571Y-71639600D02*
X142736190Y-71591980D01*
X142736190Y-71591980D02*
X142783809Y-71496742D01*
X142783809Y-71496742D02*
X142783809Y-71401504D01*
X142783809Y-71401504D02*
X142736190Y-71306266D01*
X142736190Y-71306266D02*
X142688571Y-71258647D01*
X142688571Y-71258647D02*
X142593333Y-71211028D01*
X142593333Y-71211028D02*
X142402857Y-71163409D01*
X142402857Y-71163409D02*
X142307619Y-71115790D01*
X142307619Y-71115790D02*
X142260000Y-71068171D01*
X142260000Y-71068171D02*
X142212381Y-70972933D01*
X142212381Y-70972933D02*
X142212381Y-70877695D01*
X142212381Y-70877695D02*
X142260000Y-70782457D01*
X142260000Y-70782457D02*
X142307619Y-70734838D01*
X142307619Y-70734838D02*
X142402857Y-70687219D01*
X142402857Y-70687219D02*
X142640952Y-70687219D01*
X142640952Y-70687219D02*
X142783809Y-70734838D01*
X143069524Y-70687219D02*
X143640952Y-70687219D01*
X143355238Y-71687219D02*
X143355238Y-70687219D01*
X143926667Y-71401504D02*
X144402857Y-71401504D01*
X143831429Y-71687219D02*
X144164762Y-70687219D01*
X144164762Y-70687219D02*
X144498095Y-71687219D01*
X145355238Y-70734838D02*
X145260000Y-70687219D01*
X145260000Y-70687219D02*
X145117143Y-70687219D01*
X145117143Y-70687219D02*
X144974286Y-70734838D01*
X144974286Y-70734838D02*
X144879048Y-70830076D01*
X144879048Y-70830076D02*
X144831429Y-70925314D01*
X144831429Y-70925314D02*
X144783810Y-71115790D01*
X144783810Y-71115790D02*
X144783810Y-71258647D01*
X144783810Y-71258647D02*
X144831429Y-71449123D01*
X144831429Y-71449123D02*
X144879048Y-71544361D01*
X144879048Y-71544361D02*
X144974286Y-71639600D01*
X144974286Y-71639600D02*
X145117143Y-71687219D01*
X145117143Y-71687219D02*
X145212381Y-71687219D01*
X145212381Y-71687219D02*
X145355238Y-71639600D01*
X145355238Y-71639600D02*
X145402857Y-71591980D01*
X145402857Y-71591980D02*
X145402857Y-71258647D01*
X145402857Y-71258647D02*
X145212381Y-71258647D01*
X145831429Y-71163409D02*
X146164762Y-71163409D01*
X146307619Y-71687219D02*
X145831429Y-71687219D01*
X145831429Y-71687219D02*
X145831429Y-70687219D01*
X145831429Y-70687219D02*
X146307619Y-70687219D01*
D11*
X116462000Y-83498384D02*
X116462000Y-82355527D01*
D10*
X169782438Y-76271904D02*
X169734819Y-76367142D01*
X169734819Y-76367142D02*
X169734819Y-76509999D01*
X169734819Y-76509999D02*
X169782438Y-76652856D01*
X169782438Y-76652856D02*
X169877676Y-76748094D01*
X169877676Y-76748094D02*
X169972914Y-76795713D01*
X169972914Y-76795713D02*
X170163390Y-76843332D01*
X170163390Y-76843332D02*
X170306247Y-76843332D01*
X170306247Y-76843332D02*
X170496723Y-76795713D01*
X170496723Y-76795713D02*
X170591961Y-76748094D01*
X170591961Y-76748094D02*
X170687200Y-76652856D01*
X170687200Y-76652856D02*
X170734819Y-76509999D01*
X170734819Y-76509999D02*
X170734819Y-76414761D01*
X170734819Y-76414761D02*
X170687200Y-76271904D01*
X170687200Y-76271904D02*
X170639580Y-76224285D01*
X170639580Y-76224285D02*
X170306247Y-76224285D01*
X170306247Y-76224285D02*
X170306247Y-76414761D01*
X170734819Y-75795713D02*
X169734819Y-75795713D01*
X169734819Y-75795713D02*
X170734819Y-75224285D01*
X170734819Y-75224285D02*
X169734819Y-75224285D01*
X170734819Y-74748094D02*
X169734819Y-74748094D01*
X169734819Y-74748094D02*
X169734819Y-74509999D01*
X169734819Y-74509999D02*
X169782438Y-74367142D01*
X169782438Y-74367142D02*
X169877676Y-74271904D01*
X169877676Y-74271904D02*
X169972914Y-74224285D01*
X169972914Y-74224285D02*
X170163390Y-74176666D01*
X170163390Y-74176666D02*
X170306247Y-74176666D01*
X170306247Y-74176666D02*
X170496723Y-74224285D01*
X170496723Y-74224285D02*
X170591961Y-74271904D01*
X170591961Y-74271904D02*
X170687200Y-74367142D01*
X170687200Y-74367142D02*
X170734819Y-74509999D01*
X170734819Y-74509999D02*
X170734819Y-74748094D01*
D11*
X151751615Y-98032000D02*
X152894473Y-98032000D01*
X130661615Y-98062000D02*
X131804473Y-98062000D01*
X131233044Y-98633428D02*
X131233044Y-97490571D01*
D10*
X170293866Y-71495713D02*
X170293866Y-70733809D01*
X170674819Y-71114761D02*
X169912914Y-71114761D01*
X169674819Y-69781428D02*
X169674819Y-70257618D01*
X169674819Y-70257618D02*
X170151009Y-70305237D01*
X170151009Y-70305237D02*
X170103390Y-70257618D01*
X170103390Y-70257618D02*
X170055771Y-70162380D01*
X170055771Y-70162380D02*
X170055771Y-69924285D01*
X170055771Y-69924285D02*
X170103390Y-69829047D01*
X170103390Y-69829047D02*
X170151009Y-69781428D01*
X170151009Y-69781428D02*
X170246247Y-69733809D01*
X170246247Y-69733809D02*
X170484342Y-69733809D01*
X170484342Y-69733809D02*
X170579580Y-69781428D01*
X170579580Y-69781428D02*
X170627200Y-69829047D01*
X170627200Y-69829047D02*
X170674819Y-69924285D01*
X170674819Y-69924285D02*
X170674819Y-70162380D01*
X170674819Y-70162380D02*
X170627200Y-70257618D01*
X170627200Y-70257618D02*
X170579580Y-70305237D01*
X169674819Y-69448094D02*
X170674819Y-69114761D01*
X170674819Y-69114761D02*
X169674819Y-68781428D01*
D11*
X127191615Y-49672000D02*
X128334473Y-49672000D01*
X133681615Y-49712000D02*
X134824473Y-49712000D01*
X134253044Y-50283428D02*
X134253044Y-49140571D01*
X144881615Y-97912000D02*
X146024473Y-97912000D01*
X145453044Y-98483428D02*
X145453044Y-97340571D01*
D12*
X123112724Y-82599048D02*
X124112724Y-82599048D01*
X124112724Y-82599048D02*
X124112724Y-82837143D01*
X124112724Y-82837143D02*
X124065105Y-82980000D01*
X124065105Y-82980000D02*
X123969867Y-83075238D01*
X123969867Y-83075238D02*
X123874629Y-83122857D01*
X123874629Y-83122857D02*
X123684153Y-83170476D01*
X123684153Y-83170476D02*
X123541296Y-83170476D01*
X123541296Y-83170476D02*
X123350820Y-83122857D01*
X123350820Y-83122857D02*
X123255582Y-83075238D01*
X123255582Y-83075238D02*
X123160344Y-82980000D01*
X123160344Y-82980000D02*
X123112724Y-82837143D01*
X123112724Y-82837143D02*
X123112724Y-82599048D01*
X123207963Y-84170476D02*
X123160344Y-84122857D01*
X123160344Y-84122857D02*
X123112724Y-83980000D01*
X123112724Y-83980000D02*
X123112724Y-83884762D01*
X123112724Y-83884762D02*
X123160344Y-83741905D01*
X123160344Y-83741905D02*
X123255582Y-83646667D01*
X123255582Y-83646667D02*
X123350820Y-83599048D01*
X123350820Y-83599048D02*
X123541296Y-83551429D01*
X123541296Y-83551429D02*
X123684153Y-83551429D01*
X123684153Y-83551429D02*
X123874629Y-83599048D01*
X123874629Y-83599048D02*
X123969867Y-83646667D01*
X123969867Y-83646667D02*
X124065105Y-83741905D01*
X124065105Y-83741905D02*
X124112724Y-83884762D01*
X124112724Y-83884762D02*
X124112724Y-83980000D01*
X124112724Y-83980000D02*
X124065105Y-84122857D01*
X124065105Y-84122857D02*
X124017486Y-84170476D01*
X123493677Y-84599048D02*
X123493677Y-85360953D01*
X123112724Y-85837143D02*
X124112724Y-85837143D01*
X124112724Y-85837143D02*
X124112724Y-86075238D01*
X124112724Y-86075238D02*
X124065105Y-86218095D01*
X124065105Y-86218095D02*
X123969867Y-86313333D01*
X123969867Y-86313333D02*
X123874629Y-86360952D01*
X123874629Y-86360952D02*
X123684153Y-86408571D01*
X123684153Y-86408571D02*
X123541296Y-86408571D01*
X123541296Y-86408571D02*
X123350820Y-86360952D01*
X123350820Y-86360952D02*
X123255582Y-86313333D01*
X123255582Y-86313333D02*
X123160344Y-86218095D01*
X123160344Y-86218095D02*
X123112724Y-86075238D01*
X123112724Y-86075238D02*
X123112724Y-85837143D01*
X123207963Y-87408571D02*
X123160344Y-87360952D01*
X123160344Y-87360952D02*
X123112724Y-87218095D01*
X123112724Y-87218095D02*
X123112724Y-87122857D01*
X123112724Y-87122857D02*
X123160344Y-86980000D01*
X123160344Y-86980000D02*
X123255582Y-86884762D01*
X123255582Y-86884762D02*
X123350820Y-86837143D01*
X123350820Y-86837143D02*
X123541296Y-86789524D01*
X123541296Y-86789524D02*
X123684153Y-86789524D01*
X123684153Y-86789524D02*
X123874629Y-86837143D01*
X123874629Y-86837143D02*
X123969867Y-86884762D01*
X123969867Y-86884762D02*
X124065105Y-86980000D01*
X124065105Y-86980000D02*
X124112724Y-87122857D01*
X124112724Y-87122857D02*
X124112724Y-87218095D01*
X124112724Y-87218095D02*
X124065105Y-87360952D01*
X124065105Y-87360952D02*
X124017486Y-87408571D01*
X121550400Y-82932381D02*
X121502780Y-83075238D01*
X121502780Y-83075238D02*
X121502780Y-83313333D01*
X121502780Y-83313333D02*
X121550400Y-83408571D01*
X121550400Y-83408571D02*
X121598019Y-83456190D01*
X121598019Y-83456190D02*
X121693257Y-83503809D01*
X121693257Y-83503809D02*
X121788495Y-83503809D01*
X121788495Y-83503809D02*
X121883733Y-83456190D01*
X121883733Y-83456190D02*
X121931352Y-83408571D01*
X121931352Y-83408571D02*
X121978971Y-83313333D01*
X121978971Y-83313333D02*
X122026590Y-83122857D01*
X122026590Y-83122857D02*
X122074209Y-83027619D01*
X122074209Y-83027619D02*
X122121828Y-82980000D01*
X122121828Y-82980000D02*
X122217066Y-82932381D01*
X122217066Y-82932381D02*
X122312304Y-82932381D01*
X122312304Y-82932381D02*
X122407542Y-82980000D01*
X122407542Y-82980000D02*
X122455161Y-83027619D01*
X122455161Y-83027619D02*
X122502780Y-83122857D01*
X122502780Y-83122857D02*
X122502780Y-83360952D01*
X122502780Y-83360952D02*
X122455161Y-83503809D01*
X122502780Y-83789524D02*
X122502780Y-84360952D01*
X121502780Y-84075238D02*
X122502780Y-84075238D01*
X121788495Y-84646667D02*
X121788495Y-85122857D01*
X121502780Y-84551429D02*
X122502780Y-84884762D01*
X122502780Y-84884762D02*
X121502780Y-85218095D01*
X122455161Y-86075238D02*
X122502780Y-85980000D01*
X122502780Y-85980000D02*
X122502780Y-85837143D01*
X122502780Y-85837143D02*
X122455161Y-85694286D01*
X122455161Y-85694286D02*
X122359923Y-85599048D01*
X122359923Y-85599048D02*
X122264685Y-85551429D01*
X122264685Y-85551429D02*
X122074209Y-85503810D01*
X122074209Y-85503810D02*
X121931352Y-85503810D01*
X121931352Y-85503810D02*
X121740876Y-85551429D01*
X121740876Y-85551429D02*
X121645638Y-85599048D01*
X121645638Y-85599048D02*
X121550400Y-85694286D01*
X121550400Y-85694286D02*
X121502780Y-85837143D01*
X121502780Y-85837143D02*
X121502780Y-85932381D01*
X121502780Y-85932381D02*
X121550400Y-86075238D01*
X121550400Y-86075238D02*
X121598019Y-86122857D01*
X121598019Y-86122857D02*
X121931352Y-86122857D01*
X121931352Y-86122857D02*
X121931352Y-85932381D01*
X122026590Y-86551429D02*
X122026590Y-86884762D01*
X121502780Y-87027619D02*
X121502780Y-86551429D01*
X121502780Y-86551429D02*
X122502780Y-86551429D01*
X122502780Y-86551429D02*
X122502780Y-87027619D01*
D11*
X137901615Y-98132000D02*
X139044473Y-98132000D01*
D12*
X145057275Y-49022380D02*
X144057275Y-49022380D01*
X144057275Y-49022380D02*
X144771560Y-48689047D01*
X144771560Y-48689047D02*
X144057275Y-48355714D01*
X144057275Y-48355714D02*
X145057275Y-48355714D01*
X144771560Y-47927142D02*
X144771560Y-47450952D01*
X145057275Y-48022380D02*
X144057275Y-47689047D01*
X144057275Y-47689047D02*
X145057275Y-47355714D01*
X145009656Y-47069999D02*
X145057275Y-46927142D01*
X145057275Y-46927142D02*
X145057275Y-46689047D01*
X145057275Y-46689047D02*
X145009656Y-46593809D01*
X145009656Y-46593809D02*
X144962036Y-46546190D01*
X144962036Y-46546190D02*
X144866798Y-46498571D01*
X144866798Y-46498571D02*
X144771560Y-46498571D01*
X144771560Y-46498571D02*
X144676322Y-46546190D01*
X144676322Y-46546190D02*
X144628703Y-46593809D01*
X144628703Y-46593809D02*
X144581084Y-46689047D01*
X144581084Y-46689047D02*
X144533465Y-46879523D01*
X144533465Y-46879523D02*
X144485846Y-46974761D01*
X144485846Y-46974761D02*
X144438227Y-47022380D01*
X144438227Y-47022380D02*
X144342989Y-47069999D01*
X144342989Y-47069999D02*
X144247751Y-47069999D01*
X144247751Y-47069999D02*
X144152513Y-47022380D01*
X144152513Y-47022380D02*
X144104894Y-46974761D01*
X144104894Y-46974761D02*
X144057275Y-46879523D01*
X144057275Y-46879523D02*
X144057275Y-46641428D01*
X144057275Y-46641428D02*
X144104894Y-46498571D01*
X144057275Y-46212856D02*
X144057275Y-45641428D01*
X145057275Y-45927142D02*
X144057275Y-45927142D01*
X144533465Y-45308094D02*
X144533465Y-44974761D01*
X145057275Y-44831904D02*
X145057275Y-45308094D01*
X145057275Y-45308094D02*
X144057275Y-45308094D01*
X144057275Y-45308094D02*
X144057275Y-44831904D01*
X145057275Y-43831904D02*
X144581084Y-44165237D01*
X145057275Y-44403332D02*
X144057275Y-44403332D01*
X144057275Y-44403332D02*
X144057275Y-44022380D01*
X144057275Y-44022380D02*
X144104894Y-43927142D01*
X144104894Y-43927142D02*
X144152513Y-43879523D01*
X144152513Y-43879523D02*
X144247751Y-43831904D01*
X144247751Y-43831904D02*
X144390608Y-43831904D01*
X144390608Y-43831904D02*
X144485846Y-43879523D01*
X144485846Y-43879523D02*
X144533465Y-43927142D01*
X144533465Y-43927142D02*
X144581084Y-44022380D01*
X144581084Y-44022380D02*
X144581084Y-44403332D01*
X146667219Y-47403332D02*
X145667219Y-47403332D01*
X145667219Y-47403332D02*
X145667219Y-47022380D01*
X145667219Y-47022380D02*
X145714838Y-46927142D01*
X145714838Y-46927142D02*
X145762457Y-46879523D01*
X145762457Y-46879523D02*
X145857695Y-46831904D01*
X145857695Y-46831904D02*
X146000552Y-46831904D01*
X146000552Y-46831904D02*
X146095790Y-46879523D01*
X146095790Y-46879523D02*
X146143409Y-46927142D01*
X146143409Y-46927142D02*
X146191028Y-47022380D01*
X146191028Y-47022380D02*
X146191028Y-47403332D01*
X145667219Y-46498570D02*
X146667219Y-46260475D01*
X146667219Y-46260475D02*
X145952933Y-46069999D01*
X145952933Y-46069999D02*
X146667219Y-45879523D01*
X146667219Y-45879523D02*
X145667219Y-45641428D01*
X146667219Y-44689047D02*
X146191028Y-45022380D01*
X146667219Y-45260475D02*
X145667219Y-45260475D01*
X145667219Y-45260475D02*
X145667219Y-44879523D01*
X145667219Y-44879523D02*
X145714838Y-44784285D01*
X145714838Y-44784285D02*
X145762457Y-44736666D01*
X145762457Y-44736666D02*
X145857695Y-44689047D01*
X145857695Y-44689047D02*
X146000552Y-44689047D01*
X146000552Y-44689047D02*
X146095790Y-44736666D01*
X146095790Y-44736666D02*
X146143409Y-44784285D01*
X146143409Y-44784285D02*
X146191028Y-44879523D01*
X146191028Y-44879523D02*
X146191028Y-45260475D01*
D10*
X110306665Y-102589847D02*
X110306665Y-101589847D01*
X110306665Y-101589847D02*
X110687617Y-101589847D01*
X110687617Y-101589847D02*
X110782855Y-101637466D01*
X110782855Y-101637466D02*
X110830474Y-101685085D01*
X110830474Y-101685085D02*
X110878093Y-101780323D01*
X110878093Y-101780323D02*
X110878093Y-101923180D01*
X110878093Y-101923180D02*
X110830474Y-102018418D01*
X110830474Y-102018418D02*
X110782855Y-102066037D01*
X110782855Y-102066037D02*
X110687617Y-102113656D01*
X110687617Y-102113656D02*
X110306665Y-102113656D01*
X111449522Y-102589847D02*
X111354284Y-102542228D01*
X111354284Y-102542228D02*
X111306665Y-102494608D01*
X111306665Y-102494608D02*
X111259046Y-102399370D01*
X111259046Y-102399370D02*
X111259046Y-102113656D01*
X111259046Y-102113656D02*
X111306665Y-102018418D01*
X111306665Y-102018418D02*
X111354284Y-101970799D01*
X111354284Y-101970799D02*
X111449522Y-101923180D01*
X111449522Y-101923180D02*
X111592379Y-101923180D01*
X111592379Y-101923180D02*
X111687617Y-101970799D01*
X111687617Y-101970799D02*
X111735236Y-102018418D01*
X111735236Y-102018418D02*
X111782855Y-102113656D01*
X111782855Y-102113656D02*
X111782855Y-102399370D01*
X111782855Y-102399370D02*
X111735236Y-102494608D01*
X111735236Y-102494608D02*
X111687617Y-102542228D01*
X111687617Y-102542228D02*
X111592379Y-102589847D01*
X111592379Y-102589847D02*
X111449522Y-102589847D01*
X112116189Y-101923180D02*
X112306665Y-102589847D01*
X112306665Y-102589847D02*
X112497141Y-102113656D01*
X112497141Y-102113656D02*
X112687617Y-102589847D01*
X112687617Y-102589847D02*
X112878093Y-101923180D01*
X113639998Y-102542228D02*
X113544760Y-102589847D01*
X113544760Y-102589847D02*
X113354284Y-102589847D01*
X113354284Y-102589847D02*
X113259046Y-102542228D01*
X113259046Y-102542228D02*
X113211427Y-102446989D01*
X113211427Y-102446989D02*
X113211427Y-102066037D01*
X113211427Y-102066037D02*
X113259046Y-101970799D01*
X113259046Y-101970799D02*
X113354284Y-101923180D01*
X113354284Y-101923180D02*
X113544760Y-101923180D01*
X113544760Y-101923180D02*
X113639998Y-101970799D01*
X113639998Y-101970799D02*
X113687617Y-102066037D01*
X113687617Y-102066037D02*
X113687617Y-102161275D01*
X113687617Y-102161275D02*
X113211427Y-102256513D01*
X114116189Y-102589847D02*
X114116189Y-101923180D01*
X114116189Y-102113656D02*
X114163808Y-102018418D01*
X114163808Y-102018418D02*
X114211427Y-101970799D01*
X114211427Y-101970799D02*
X114306665Y-101923180D01*
X114306665Y-101923180D02*
X114401903Y-101923180D01*
X115449523Y-102542228D02*
X115592380Y-102589847D01*
X115592380Y-102589847D02*
X115830475Y-102589847D01*
X115830475Y-102589847D02*
X115925713Y-102542228D01*
X115925713Y-102542228D02*
X115973332Y-102494608D01*
X115973332Y-102494608D02*
X116020951Y-102399370D01*
X116020951Y-102399370D02*
X116020951Y-102304132D01*
X116020951Y-102304132D02*
X115973332Y-102208894D01*
X115973332Y-102208894D02*
X115925713Y-102161275D01*
X115925713Y-102161275D02*
X115830475Y-102113656D01*
X115830475Y-102113656D02*
X115639999Y-102066037D01*
X115639999Y-102066037D02*
X115544761Y-102018418D01*
X115544761Y-102018418D02*
X115497142Y-101970799D01*
X115497142Y-101970799D02*
X115449523Y-101875561D01*
X115449523Y-101875561D02*
X115449523Y-101780323D01*
X115449523Y-101780323D02*
X115497142Y-101685085D01*
X115497142Y-101685085D02*
X115544761Y-101637466D01*
X115544761Y-101637466D02*
X115639999Y-101589847D01*
X115639999Y-101589847D02*
X115878094Y-101589847D01*
X115878094Y-101589847D02*
X116020951Y-101637466D01*
X116306666Y-101923180D02*
X116687618Y-101923180D01*
X116449523Y-101589847D02*
X116449523Y-102446989D01*
X116449523Y-102446989D02*
X116497142Y-102542228D01*
X116497142Y-102542228D02*
X116592380Y-102589847D01*
X116592380Y-102589847D02*
X116687618Y-102589847D01*
X117449523Y-102589847D02*
X117449523Y-102066037D01*
X117449523Y-102066037D02*
X117401904Y-101970799D01*
X117401904Y-101970799D02*
X117306666Y-101923180D01*
X117306666Y-101923180D02*
X117116190Y-101923180D01*
X117116190Y-101923180D02*
X117020952Y-101970799D01*
X117449523Y-102542228D02*
X117354285Y-102589847D01*
X117354285Y-102589847D02*
X117116190Y-102589847D01*
X117116190Y-102589847D02*
X117020952Y-102542228D01*
X117020952Y-102542228D02*
X116973333Y-102446989D01*
X116973333Y-102446989D02*
X116973333Y-102351751D01*
X116973333Y-102351751D02*
X117020952Y-102256513D01*
X117020952Y-102256513D02*
X117116190Y-102208894D01*
X117116190Y-102208894D02*
X117354285Y-102208894D01*
X117354285Y-102208894D02*
X117449523Y-102161275D01*
X118354285Y-101923180D02*
X118354285Y-102732704D01*
X118354285Y-102732704D02*
X118306666Y-102827942D01*
X118306666Y-102827942D02*
X118259047Y-102875561D01*
X118259047Y-102875561D02*
X118163809Y-102923180D01*
X118163809Y-102923180D02*
X118020952Y-102923180D01*
X118020952Y-102923180D02*
X117925714Y-102875561D01*
X118354285Y-102542228D02*
X118259047Y-102589847D01*
X118259047Y-102589847D02*
X118068571Y-102589847D01*
X118068571Y-102589847D02*
X117973333Y-102542228D01*
X117973333Y-102542228D02*
X117925714Y-102494608D01*
X117925714Y-102494608D02*
X117878095Y-102399370D01*
X117878095Y-102399370D02*
X117878095Y-102113656D01*
X117878095Y-102113656D02*
X117925714Y-102018418D01*
X117925714Y-102018418D02*
X117973333Y-101970799D01*
X117973333Y-101970799D02*
X118068571Y-101923180D01*
X118068571Y-101923180D02*
X118259047Y-101923180D01*
X118259047Y-101923180D02*
X118354285Y-101970799D01*
X119211428Y-102542228D02*
X119116190Y-102589847D01*
X119116190Y-102589847D02*
X118925714Y-102589847D01*
X118925714Y-102589847D02*
X118830476Y-102542228D01*
X118830476Y-102542228D02*
X118782857Y-102446989D01*
X118782857Y-102446989D02*
X118782857Y-102066037D01*
X118782857Y-102066037D02*
X118830476Y-101970799D01*
X118830476Y-101970799D02*
X118925714Y-101923180D01*
X118925714Y-101923180D02*
X119116190Y-101923180D01*
X119116190Y-101923180D02*
X119211428Y-101970799D01*
X119211428Y-101970799D02*
X119259047Y-102066037D01*
X119259047Y-102066037D02*
X119259047Y-102161275D01*
X119259047Y-102161275D02*
X118782857Y-102256513D01*
X120449524Y-102589847D02*
X120449524Y-101589847D01*
X120449524Y-101589847D02*
X120687619Y-101589847D01*
X120687619Y-101589847D02*
X120830476Y-101637466D01*
X120830476Y-101637466D02*
X120925714Y-101732704D01*
X120925714Y-101732704D02*
X120973333Y-101827942D01*
X120973333Y-101827942D02*
X121020952Y-102018418D01*
X121020952Y-102018418D02*
X121020952Y-102161275D01*
X121020952Y-102161275D02*
X120973333Y-102351751D01*
X120973333Y-102351751D02*
X120925714Y-102446989D01*
X120925714Y-102446989D02*
X120830476Y-102542228D01*
X120830476Y-102542228D02*
X120687619Y-102589847D01*
X120687619Y-102589847D02*
X120449524Y-102589847D01*
X121449524Y-102589847D02*
X121449524Y-101923180D01*
X121449524Y-102113656D02*
X121497143Y-102018418D01*
X121497143Y-102018418D02*
X121544762Y-101970799D01*
X121544762Y-101970799D02*
X121640000Y-101923180D01*
X121640000Y-101923180D02*
X121735238Y-101923180D01*
X122211429Y-102589847D02*
X122116191Y-102542228D01*
X122116191Y-102542228D02*
X122068572Y-102494608D01*
X122068572Y-102494608D02*
X122020953Y-102399370D01*
X122020953Y-102399370D02*
X122020953Y-102113656D01*
X122020953Y-102113656D02*
X122068572Y-102018418D01*
X122068572Y-102018418D02*
X122116191Y-101970799D01*
X122116191Y-101970799D02*
X122211429Y-101923180D01*
X122211429Y-101923180D02*
X122354286Y-101923180D01*
X122354286Y-101923180D02*
X122449524Y-101970799D01*
X122449524Y-101970799D02*
X122497143Y-102018418D01*
X122497143Y-102018418D02*
X122544762Y-102113656D01*
X122544762Y-102113656D02*
X122544762Y-102399370D01*
X122544762Y-102399370D02*
X122497143Y-102494608D01*
X122497143Y-102494608D02*
X122449524Y-102542228D01*
X122449524Y-102542228D02*
X122354286Y-102589847D01*
X122354286Y-102589847D02*
X122211429Y-102589847D01*
X122973334Y-101923180D02*
X122973334Y-102589847D01*
X122973334Y-102018418D02*
X123020953Y-101970799D01*
X123020953Y-101970799D02*
X123116191Y-101923180D01*
X123116191Y-101923180D02*
X123259048Y-101923180D01*
X123259048Y-101923180D02*
X123354286Y-101970799D01*
X123354286Y-101970799D02*
X123401905Y-102066037D01*
X123401905Y-102066037D02*
X123401905Y-102589847D01*
X124497144Y-101589847D02*
X124830477Y-102589847D01*
X124830477Y-102589847D02*
X125163810Y-101589847D01*
X126020953Y-102589847D02*
X125449525Y-102589847D01*
X125735239Y-102589847D02*
X125735239Y-101589847D01*
X125735239Y-101589847D02*
X125640001Y-101732704D01*
X125640001Y-101732704D02*
X125544763Y-101827942D01*
X125544763Y-101827942D02*
X125449525Y-101875561D01*
X110735236Y-104104552D02*
X110687617Y-104152172D01*
X110687617Y-104152172D02*
X110544760Y-104199791D01*
X110544760Y-104199791D02*
X110449522Y-104199791D01*
X110449522Y-104199791D02*
X110306665Y-104152172D01*
X110306665Y-104152172D02*
X110211427Y-104056933D01*
X110211427Y-104056933D02*
X110163808Y-103961695D01*
X110163808Y-103961695D02*
X110116189Y-103771219D01*
X110116189Y-103771219D02*
X110116189Y-103628362D01*
X110116189Y-103628362D02*
X110163808Y-103437886D01*
X110163808Y-103437886D02*
X110211427Y-103342648D01*
X110211427Y-103342648D02*
X110306665Y-103247410D01*
X110306665Y-103247410D02*
X110449522Y-103199791D01*
X110449522Y-103199791D02*
X110544760Y-103199791D01*
X110544760Y-103199791D02*
X110687617Y-103247410D01*
X110687617Y-103247410D02*
X110735236Y-103295029D01*
X111163808Y-104199791D02*
X111163808Y-103533124D01*
X111163808Y-103723600D02*
X111211427Y-103628362D01*
X111211427Y-103628362D02*
X111259046Y-103580743D01*
X111259046Y-103580743D02*
X111354284Y-103533124D01*
X111354284Y-103533124D02*
X111449522Y-103533124D01*
X111782856Y-104199791D02*
X111782856Y-103533124D01*
X111782856Y-103199791D02*
X111735237Y-103247410D01*
X111735237Y-103247410D02*
X111782856Y-103295029D01*
X111782856Y-103295029D02*
X111830475Y-103247410D01*
X111830475Y-103247410D02*
X111782856Y-103199791D01*
X111782856Y-103199791D02*
X111782856Y-103295029D01*
X112211427Y-104152172D02*
X112306665Y-104199791D01*
X112306665Y-104199791D02*
X112497141Y-104199791D01*
X112497141Y-104199791D02*
X112592379Y-104152172D01*
X112592379Y-104152172D02*
X112639998Y-104056933D01*
X112639998Y-104056933D02*
X112639998Y-104009314D01*
X112639998Y-104009314D02*
X112592379Y-103914076D01*
X112592379Y-103914076D02*
X112497141Y-103866457D01*
X112497141Y-103866457D02*
X112354284Y-103866457D01*
X112354284Y-103866457D02*
X112259046Y-103818838D01*
X112259046Y-103818838D02*
X112211427Y-103723600D01*
X112211427Y-103723600D02*
X112211427Y-103675981D01*
X112211427Y-103675981D02*
X112259046Y-103580743D01*
X112259046Y-103580743D02*
X112354284Y-103533124D01*
X112354284Y-103533124D02*
X112497141Y-103533124D01*
X112497141Y-103533124D02*
X112592379Y-103580743D01*
X112925713Y-103533124D02*
X113306665Y-103533124D01*
X113068570Y-103199791D02*
X113068570Y-104056933D01*
X113068570Y-104056933D02*
X113116189Y-104152172D01*
X113116189Y-104152172D02*
X113211427Y-104199791D01*
X113211427Y-104199791D02*
X113306665Y-104199791D01*
X113639999Y-104199791D02*
X113639999Y-103533124D01*
X113639999Y-103199791D02*
X113592380Y-103247410D01*
X113592380Y-103247410D02*
X113639999Y-103295029D01*
X113639999Y-103295029D02*
X113687618Y-103247410D01*
X113687618Y-103247410D02*
X113639999Y-103199791D01*
X113639999Y-103199791D02*
X113639999Y-103295029D01*
X114544760Y-104199791D02*
X114544760Y-103675981D01*
X114544760Y-103675981D02*
X114497141Y-103580743D01*
X114497141Y-103580743D02*
X114401903Y-103533124D01*
X114401903Y-103533124D02*
X114211427Y-103533124D01*
X114211427Y-103533124D02*
X114116189Y-103580743D01*
X114544760Y-104152172D02*
X114449522Y-104199791D01*
X114449522Y-104199791D02*
X114211427Y-104199791D01*
X114211427Y-104199791D02*
X114116189Y-104152172D01*
X114116189Y-104152172D02*
X114068570Y-104056933D01*
X114068570Y-104056933D02*
X114068570Y-103961695D01*
X114068570Y-103961695D02*
X114116189Y-103866457D01*
X114116189Y-103866457D02*
X114211427Y-103818838D01*
X114211427Y-103818838D02*
X114449522Y-103818838D01*
X114449522Y-103818838D02*
X114544760Y-103771219D01*
X115020951Y-103533124D02*
X115020951Y-104199791D01*
X115020951Y-103628362D02*
X115068570Y-103580743D01*
X115068570Y-103580743D02*
X115163808Y-103533124D01*
X115163808Y-103533124D02*
X115306665Y-103533124D01*
X115306665Y-103533124D02*
X115401903Y-103580743D01*
X115401903Y-103580743D02*
X115449522Y-103675981D01*
X115449522Y-103675981D02*
X115449522Y-104199791D01*
X117259046Y-104104552D02*
X117211427Y-104152172D01*
X117211427Y-104152172D02*
X117068570Y-104199791D01*
X117068570Y-104199791D02*
X116973332Y-104199791D01*
X116973332Y-104199791D02*
X116830475Y-104152172D01*
X116830475Y-104152172D02*
X116735237Y-104056933D01*
X116735237Y-104056933D02*
X116687618Y-103961695D01*
X116687618Y-103961695D02*
X116639999Y-103771219D01*
X116639999Y-103771219D02*
X116639999Y-103628362D01*
X116639999Y-103628362D02*
X116687618Y-103437886D01*
X116687618Y-103437886D02*
X116735237Y-103342648D01*
X116735237Y-103342648D02*
X116830475Y-103247410D01*
X116830475Y-103247410D02*
X116973332Y-103199791D01*
X116973332Y-103199791D02*
X117068570Y-103199791D01*
X117068570Y-103199791D02*
X117211427Y-103247410D01*
X117211427Y-103247410D02*
X117259046Y-103295029D01*
X118116189Y-104199791D02*
X118116189Y-103675981D01*
X118116189Y-103675981D02*
X118068570Y-103580743D01*
X118068570Y-103580743D02*
X117973332Y-103533124D01*
X117973332Y-103533124D02*
X117782856Y-103533124D01*
X117782856Y-103533124D02*
X117687618Y-103580743D01*
X118116189Y-104152172D02*
X118020951Y-104199791D01*
X118020951Y-104199791D02*
X117782856Y-104199791D01*
X117782856Y-104199791D02*
X117687618Y-104152172D01*
X117687618Y-104152172D02*
X117639999Y-104056933D01*
X117639999Y-104056933D02*
X117639999Y-103961695D01*
X117639999Y-103961695D02*
X117687618Y-103866457D01*
X117687618Y-103866457D02*
X117782856Y-103818838D01*
X117782856Y-103818838D02*
X118020951Y-103818838D01*
X118020951Y-103818838D02*
X118116189Y-103771219D01*
X118544761Y-104152172D02*
X118639999Y-104199791D01*
X118639999Y-104199791D02*
X118830475Y-104199791D01*
X118830475Y-104199791D02*
X118925713Y-104152172D01*
X118925713Y-104152172D02*
X118973332Y-104056933D01*
X118973332Y-104056933D02*
X118973332Y-104009314D01*
X118973332Y-104009314D02*
X118925713Y-103914076D01*
X118925713Y-103914076D02*
X118830475Y-103866457D01*
X118830475Y-103866457D02*
X118687618Y-103866457D01*
X118687618Y-103866457D02*
X118592380Y-103818838D01*
X118592380Y-103818838D02*
X118544761Y-103723600D01*
X118544761Y-103723600D02*
X118544761Y-103675981D01*
X118544761Y-103675981D02*
X118592380Y-103580743D01*
X118592380Y-103580743D02*
X118687618Y-103533124D01*
X118687618Y-103533124D02*
X118830475Y-103533124D01*
X118830475Y-103533124D02*
X118925713Y-103580743D01*
X119259047Y-103533124D02*
X119639999Y-103533124D01*
X119401904Y-103199791D02*
X119401904Y-104056933D01*
X119401904Y-104056933D02*
X119449523Y-104152172D01*
X119449523Y-104152172D02*
X119544761Y-104199791D01*
X119544761Y-104199791D02*
X119639999Y-104199791D01*
X119973333Y-104199791D02*
X119973333Y-103533124D01*
X119973333Y-103723600D02*
X120020952Y-103628362D01*
X120020952Y-103628362D02*
X120068571Y-103580743D01*
X120068571Y-103580743D02*
X120163809Y-103533124D01*
X120163809Y-103533124D02*
X120259047Y-103533124D01*
X120735238Y-104199791D02*
X120640000Y-104152172D01*
X120640000Y-104152172D02*
X120592381Y-104104552D01*
X120592381Y-104104552D02*
X120544762Y-104009314D01*
X120544762Y-104009314D02*
X120544762Y-103723600D01*
X120544762Y-103723600D02*
X120592381Y-103628362D01*
X120592381Y-103628362D02*
X120640000Y-103580743D01*
X120640000Y-103580743D02*
X120735238Y-103533124D01*
X120735238Y-103533124D02*
X120878095Y-103533124D01*
X120878095Y-103533124D02*
X120973333Y-103580743D01*
X120973333Y-103580743D02*
X121020952Y-103628362D01*
X121020952Y-103628362D02*
X121068571Y-103723600D01*
X121068571Y-103723600D02*
X121068571Y-104009314D01*
X121068571Y-104009314D02*
X121020952Y-104104552D01*
X121020952Y-104104552D02*
X120973333Y-104152172D01*
X120973333Y-104152172D02*
X120878095Y-104199791D01*
X120878095Y-104199791D02*
X120735238Y-104199791D01*
X122735238Y-104199791D02*
X122259048Y-104199791D01*
X122259048Y-104199791D02*
X122259048Y-103199791D01*
X123497143Y-104199791D02*
X123497143Y-103675981D01*
X123497143Y-103675981D02*
X123449524Y-103580743D01*
X123449524Y-103580743D02*
X123354286Y-103533124D01*
X123354286Y-103533124D02*
X123163810Y-103533124D01*
X123163810Y-103533124D02*
X123068572Y-103580743D01*
X123497143Y-104152172D02*
X123401905Y-104199791D01*
X123401905Y-104199791D02*
X123163810Y-104199791D01*
X123163810Y-104199791D02*
X123068572Y-104152172D01*
X123068572Y-104152172D02*
X123020953Y-104056933D01*
X123020953Y-104056933D02*
X123020953Y-103961695D01*
X123020953Y-103961695D02*
X123068572Y-103866457D01*
X123068572Y-103866457D02*
X123163810Y-103818838D01*
X123163810Y-103818838D02*
X123401905Y-103818838D01*
X123401905Y-103818838D02*
X123497143Y-103771219D01*
X124401905Y-103533124D02*
X124401905Y-104342648D01*
X124401905Y-104342648D02*
X124354286Y-104437886D01*
X124354286Y-104437886D02*
X124306667Y-104485505D01*
X124306667Y-104485505D02*
X124211429Y-104533124D01*
X124211429Y-104533124D02*
X124068572Y-104533124D01*
X124068572Y-104533124D02*
X123973334Y-104485505D01*
X124401905Y-104152172D02*
X124306667Y-104199791D01*
X124306667Y-104199791D02*
X124116191Y-104199791D01*
X124116191Y-104199791D02*
X124020953Y-104152172D01*
X124020953Y-104152172D02*
X123973334Y-104104552D01*
X123973334Y-104104552D02*
X123925715Y-104009314D01*
X123925715Y-104009314D02*
X123925715Y-103723600D01*
X123925715Y-103723600D02*
X123973334Y-103628362D01*
X123973334Y-103628362D02*
X124020953Y-103580743D01*
X124020953Y-103580743D02*
X124116191Y-103533124D01*
X124116191Y-103533124D02*
X124306667Y-103533124D01*
X124306667Y-103533124D02*
X124401905Y-103580743D01*
X125020953Y-104199791D02*
X124925715Y-104152172D01*
X124925715Y-104152172D02*
X124878096Y-104104552D01*
X124878096Y-104104552D02*
X124830477Y-104009314D01*
X124830477Y-104009314D02*
X124830477Y-103723600D01*
X124830477Y-103723600D02*
X124878096Y-103628362D01*
X124878096Y-103628362D02*
X124925715Y-103580743D01*
X124925715Y-103580743D02*
X125020953Y-103533124D01*
X125020953Y-103533124D02*
X125163810Y-103533124D01*
X125163810Y-103533124D02*
X125259048Y-103580743D01*
X125259048Y-103580743D02*
X125306667Y-103628362D01*
X125306667Y-103628362D02*
X125354286Y-103723600D01*
X125354286Y-103723600D02*
X125354286Y-104009314D01*
X125354286Y-104009314D02*
X125306667Y-104104552D01*
X125306667Y-104104552D02*
X125259048Y-104152172D01*
X125259048Y-104152172D02*
X125163810Y-104199791D01*
X125163810Y-104199791D02*
X125020953Y-104199791D01*
X125735239Y-104152172D02*
X125830477Y-104199791D01*
X125830477Y-104199791D02*
X126020953Y-104199791D01*
X126020953Y-104199791D02*
X126116191Y-104152172D01*
X126116191Y-104152172D02*
X126163810Y-104056933D01*
X126163810Y-104056933D02*
X126163810Y-104009314D01*
X126163810Y-104009314D02*
X126116191Y-103914076D01*
X126116191Y-103914076D02*
X126020953Y-103866457D01*
X126020953Y-103866457D02*
X125878096Y-103866457D01*
X125878096Y-103866457D02*
X125782858Y-103818838D01*
X125782858Y-103818838D02*
X125735239Y-103723600D01*
X125735239Y-103723600D02*
X125735239Y-103675981D01*
X125735239Y-103675981D02*
X125782858Y-103580743D01*
X125782858Y-103580743D02*
X125878096Y-103533124D01*
X125878096Y-103533124D02*
X126020953Y-103533124D01*
X126020953Y-103533124D02*
X126116191Y-103580743D01*
X144533333Y-80244819D02*
X144057143Y-80244819D01*
X144057143Y-80244819D02*
X144057143Y-79244819D01*
X145390476Y-80244819D02*
X144819048Y-80244819D01*
X145104762Y-80244819D02*
X145104762Y-79244819D01*
X145104762Y-79244819D02*
X145009524Y-79387676D01*
X145009524Y-79387676D02*
X144914286Y-79482914D01*
X144914286Y-79482914D02*
X144819048Y-79530533D01*
X124649580Y-63646666D02*
X124697200Y-63694285D01*
X124697200Y-63694285D02*
X124744819Y-63837142D01*
X124744819Y-63837142D02*
X124744819Y-63932380D01*
X124744819Y-63932380D02*
X124697200Y-64075237D01*
X124697200Y-64075237D02*
X124601961Y-64170475D01*
X124601961Y-64170475D02*
X124506723Y-64218094D01*
X124506723Y-64218094D02*
X124316247Y-64265713D01*
X124316247Y-64265713D02*
X124173390Y-64265713D01*
X124173390Y-64265713D02*
X123982914Y-64218094D01*
X123982914Y-64218094D02*
X123887676Y-64170475D01*
X123887676Y-64170475D02*
X123792438Y-64075237D01*
X123792438Y-64075237D02*
X123744819Y-63932380D01*
X123744819Y-63932380D02*
X123744819Y-63837142D01*
X123744819Y-63837142D02*
X123792438Y-63694285D01*
X123792438Y-63694285D02*
X123840057Y-63646666D01*
X124078152Y-62789523D02*
X124744819Y-62789523D01*
X123697200Y-63027618D02*
X124411485Y-63265713D01*
X124411485Y-63265713D02*
X124411485Y-62646666D01*
X158509580Y-75966666D02*
X158557200Y-76014285D01*
X158557200Y-76014285D02*
X158604819Y-76157142D01*
X158604819Y-76157142D02*
X158604819Y-76252380D01*
X158604819Y-76252380D02*
X158557200Y-76395237D01*
X158557200Y-76395237D02*
X158461961Y-76490475D01*
X158461961Y-76490475D02*
X158366723Y-76538094D01*
X158366723Y-76538094D02*
X158176247Y-76585713D01*
X158176247Y-76585713D02*
X158033390Y-76585713D01*
X158033390Y-76585713D02*
X157842914Y-76538094D01*
X157842914Y-76538094D02*
X157747676Y-76490475D01*
X157747676Y-76490475D02*
X157652438Y-76395237D01*
X157652438Y-76395237D02*
X157604819Y-76252380D01*
X157604819Y-76252380D02*
X157604819Y-76157142D01*
X157604819Y-76157142D02*
X157652438Y-76014285D01*
X157652438Y-76014285D02*
X157700057Y-75966666D01*
X158604819Y-75014285D02*
X158604819Y-75585713D01*
X158604819Y-75299999D02*
X157604819Y-75299999D01*
X157604819Y-75299999D02*
X157747676Y-75395237D01*
X157747676Y-75395237D02*
X157842914Y-75490475D01*
X157842914Y-75490475D02*
X157890533Y-75585713D01*
X126463333Y-71609819D02*
X126130000Y-71133628D01*
X125891905Y-71609819D02*
X125891905Y-70609819D01*
X125891905Y-70609819D02*
X126272857Y-70609819D01*
X126272857Y-70609819D02*
X126368095Y-70657438D01*
X126368095Y-70657438D02*
X126415714Y-70705057D01*
X126415714Y-70705057D02*
X126463333Y-70800295D01*
X126463333Y-70800295D02*
X126463333Y-70943152D01*
X126463333Y-70943152D02*
X126415714Y-71038390D01*
X126415714Y-71038390D02*
X126368095Y-71086009D01*
X126368095Y-71086009D02*
X126272857Y-71133628D01*
X126272857Y-71133628D02*
X125891905Y-71133628D01*
X127368095Y-70609819D02*
X126891905Y-70609819D01*
X126891905Y-70609819D02*
X126844286Y-71086009D01*
X126844286Y-71086009D02*
X126891905Y-71038390D01*
X126891905Y-71038390D02*
X126987143Y-70990771D01*
X126987143Y-70990771D02*
X127225238Y-70990771D01*
X127225238Y-70990771D02*
X127320476Y-71038390D01*
X127320476Y-71038390D02*
X127368095Y-71086009D01*
X127368095Y-71086009D02*
X127415714Y-71181247D01*
X127415714Y-71181247D02*
X127415714Y-71419342D01*
X127415714Y-71419342D02*
X127368095Y-71514580D01*
X127368095Y-71514580D02*
X127320476Y-71562200D01*
X127320476Y-71562200D02*
X127225238Y-71609819D01*
X127225238Y-71609819D02*
X126987143Y-71609819D01*
X126987143Y-71609819D02*
X126891905Y-71562200D01*
X126891905Y-71562200D02*
X126844286Y-71514580D01*
X116663333Y-79865180D02*
X116663333Y-79150895D01*
X116663333Y-79150895D02*
X116710952Y-79008038D01*
X116710952Y-79008038D02*
X116806190Y-78912800D01*
X116806190Y-78912800D02*
X116949047Y-78865180D01*
X116949047Y-78865180D02*
X117044285Y-78865180D01*
X116282380Y-79865180D02*
X115663333Y-79865180D01*
X115663333Y-79865180D02*
X115996666Y-79484228D01*
X115996666Y-79484228D02*
X115853809Y-79484228D01*
X115853809Y-79484228D02*
X115758571Y-79436609D01*
X115758571Y-79436609D02*
X115710952Y-79388990D01*
X115710952Y-79388990D02*
X115663333Y-79293752D01*
X115663333Y-79293752D02*
X115663333Y-79055657D01*
X115663333Y-79055657D02*
X115710952Y-78960419D01*
X115710952Y-78960419D02*
X115758571Y-78912800D01*
X115758571Y-78912800D02*
X115853809Y-78865180D01*
X115853809Y-78865180D02*
X116139523Y-78865180D01*
X116139523Y-78865180D02*
X116234761Y-78912800D01*
X116234761Y-78912800D02*
X116282380Y-78960419D01*
D13*
X134387380Y-73433842D02*
X134568809Y-73494318D01*
X134568809Y-73494318D02*
X134871190Y-73494318D01*
X134871190Y-73494318D02*
X134992142Y-73433842D01*
X134992142Y-73433842D02*
X135052618Y-73373365D01*
X135052618Y-73373365D02*
X135113095Y-73252413D01*
X135113095Y-73252413D02*
X135113095Y-73131461D01*
X135113095Y-73131461D02*
X135052618Y-73010508D01*
X135052618Y-73010508D02*
X134992142Y-72950032D01*
X134992142Y-72950032D02*
X134871190Y-72889556D01*
X134871190Y-72889556D02*
X134629285Y-72829080D01*
X134629285Y-72829080D02*
X134508333Y-72768603D01*
X134508333Y-72768603D02*
X134447856Y-72708127D01*
X134447856Y-72708127D02*
X134387380Y-72587175D01*
X134387380Y-72587175D02*
X134387380Y-72466222D01*
X134387380Y-72466222D02*
X134447856Y-72345270D01*
X134447856Y-72345270D02*
X134508333Y-72284794D01*
X134508333Y-72284794D02*
X134629285Y-72224318D01*
X134629285Y-72224318D02*
X134931666Y-72224318D01*
X134931666Y-72224318D02*
X135113095Y-72284794D01*
X136322619Y-73494318D02*
X135596904Y-73494318D01*
X135959761Y-73494318D02*
X135959761Y-72224318D01*
X135959761Y-72224318D02*
X135838809Y-72405746D01*
X135838809Y-72405746D02*
X135717857Y-72526699D01*
X135717857Y-72526699D02*
X135596904Y-72587175D01*
D10*
X152546667Y-50132200D02*
X152689524Y-50179819D01*
X152689524Y-50179819D02*
X152927619Y-50179819D01*
X152927619Y-50179819D02*
X153022857Y-50132200D01*
X153022857Y-50132200D02*
X153070476Y-50084580D01*
X153070476Y-50084580D02*
X153118095Y-49989342D01*
X153118095Y-49989342D02*
X153118095Y-49894104D01*
X153118095Y-49894104D02*
X153070476Y-49798866D01*
X153070476Y-49798866D02*
X153022857Y-49751247D01*
X153022857Y-49751247D02*
X152927619Y-49703628D01*
X152927619Y-49703628D02*
X152737143Y-49656009D01*
X152737143Y-49656009D02*
X152641905Y-49608390D01*
X152641905Y-49608390D02*
X152594286Y-49560771D01*
X152594286Y-49560771D02*
X152546667Y-49465533D01*
X152546667Y-49465533D02*
X152546667Y-49370295D01*
X152546667Y-49370295D02*
X152594286Y-49275057D01*
X152594286Y-49275057D02*
X152641905Y-49227438D01*
X152641905Y-49227438D02*
X152737143Y-49179819D01*
X152737143Y-49179819D02*
X152975238Y-49179819D01*
X152975238Y-49179819D02*
X153118095Y-49227438D01*
X153451429Y-49179819D02*
X153689524Y-50179819D01*
X153689524Y-50179819D02*
X153880000Y-49465533D01*
X153880000Y-49465533D02*
X154070476Y-50179819D01*
X154070476Y-50179819D02*
X154308572Y-49179819D01*
X155213333Y-50179819D02*
X154641905Y-50179819D01*
X154927619Y-50179819D02*
X154927619Y-49179819D01*
X154927619Y-49179819D02*
X154832381Y-49322676D01*
X154832381Y-49322676D02*
X154737143Y-49417914D01*
X154737143Y-49417914D02*
X154641905Y-49465533D01*
X154080860Y-69071995D02*
X154128480Y-69119614D01*
X154128480Y-69119614D02*
X154176099Y-69262471D01*
X154176099Y-69262471D02*
X154176099Y-69357709D01*
X154176099Y-69357709D02*
X154128480Y-69500566D01*
X154128480Y-69500566D02*
X154033241Y-69595804D01*
X154033241Y-69595804D02*
X153938003Y-69643423D01*
X153938003Y-69643423D02*
X153747527Y-69691042D01*
X153747527Y-69691042D02*
X153604670Y-69691042D01*
X153604670Y-69691042D02*
X153414194Y-69643423D01*
X153414194Y-69643423D02*
X153318956Y-69595804D01*
X153318956Y-69595804D02*
X153223718Y-69500566D01*
X153223718Y-69500566D02*
X153176099Y-69357709D01*
X153176099Y-69357709D02*
X153176099Y-69262471D01*
X153176099Y-69262471D02*
X153223718Y-69119614D01*
X153223718Y-69119614D02*
X153271337Y-69071995D01*
X153176099Y-68214852D02*
X153176099Y-68405328D01*
X153176099Y-68405328D02*
X153223718Y-68500566D01*
X153223718Y-68500566D02*
X153271337Y-68548185D01*
X153271337Y-68548185D02*
X153414194Y-68643423D01*
X153414194Y-68643423D02*
X153604670Y-68691042D01*
X153604670Y-68691042D02*
X153985622Y-68691042D01*
X153985622Y-68691042D02*
X154080860Y-68643423D01*
X154080860Y-68643423D02*
X154128480Y-68595804D01*
X154128480Y-68595804D02*
X154176099Y-68500566D01*
X154176099Y-68500566D02*
X154176099Y-68310090D01*
X154176099Y-68310090D02*
X154128480Y-68214852D01*
X154128480Y-68214852D02*
X154080860Y-68167233D01*
X154080860Y-68167233D02*
X153985622Y-68119614D01*
X153985622Y-68119614D02*
X153747527Y-68119614D01*
X153747527Y-68119614D02*
X153652289Y-68167233D01*
X153652289Y-68167233D02*
X153604670Y-68214852D01*
X153604670Y-68214852D02*
X153557051Y-68310090D01*
X153557051Y-68310090D02*
X153557051Y-68500566D01*
X153557051Y-68500566D02*
X153604670Y-68595804D01*
X153604670Y-68595804D02*
X153652289Y-68643423D01*
X153652289Y-68643423D02*
X153747527Y-68691042D01*
X116214642Y-66809580D02*
X116167023Y-66857200D01*
X116167023Y-66857200D02*
X116024166Y-66904819D01*
X116024166Y-66904819D02*
X115928928Y-66904819D01*
X115928928Y-66904819D02*
X115786071Y-66857200D01*
X115786071Y-66857200D02*
X115690833Y-66761961D01*
X115690833Y-66761961D02*
X115643214Y-66666723D01*
X115643214Y-66666723D02*
X115595595Y-66476247D01*
X115595595Y-66476247D02*
X115595595Y-66333390D01*
X115595595Y-66333390D02*
X115643214Y-66142914D01*
X115643214Y-66142914D02*
X115690833Y-66047676D01*
X115690833Y-66047676D02*
X115786071Y-65952438D01*
X115786071Y-65952438D02*
X115928928Y-65904819D01*
X115928928Y-65904819D02*
X116024166Y-65904819D01*
X116024166Y-65904819D02*
X116167023Y-65952438D01*
X116167023Y-65952438D02*
X116214642Y-66000057D01*
X117167023Y-66904819D02*
X116595595Y-66904819D01*
X116881309Y-66904819D02*
X116881309Y-65904819D01*
X116881309Y-65904819D02*
X116786071Y-66047676D01*
X116786071Y-66047676D02*
X116690833Y-66142914D01*
X116690833Y-66142914D02*
X116595595Y-66190533D01*
X117786071Y-65904819D02*
X117881309Y-65904819D01*
X117881309Y-65904819D02*
X117976547Y-65952438D01*
X117976547Y-65952438D02*
X118024166Y-66000057D01*
X118024166Y-66000057D02*
X118071785Y-66095295D01*
X118071785Y-66095295D02*
X118119404Y-66285771D01*
X118119404Y-66285771D02*
X118119404Y-66523866D01*
X118119404Y-66523866D02*
X118071785Y-66714342D01*
X118071785Y-66714342D02*
X118024166Y-66809580D01*
X118024166Y-66809580D02*
X117976547Y-66857200D01*
X117976547Y-66857200D02*
X117881309Y-66904819D01*
X117881309Y-66904819D02*
X117786071Y-66904819D01*
X117786071Y-66904819D02*
X117690833Y-66857200D01*
X117690833Y-66857200D02*
X117643214Y-66809580D01*
X117643214Y-66809580D02*
X117595595Y-66714342D01*
X117595595Y-66714342D02*
X117547976Y-66523866D01*
X117547976Y-66523866D02*
X117547976Y-66285771D01*
X117547976Y-66285771D02*
X117595595Y-66095295D01*
X117595595Y-66095295D02*
X117643214Y-66000057D01*
X117643214Y-66000057D02*
X117690833Y-65952438D01*
X117690833Y-65952438D02*
X117786071Y-65904819D01*
X124375180Y-49226666D02*
X123660895Y-49226666D01*
X123660895Y-49226666D02*
X123518038Y-49179047D01*
X123518038Y-49179047D02*
X123422800Y-49083809D01*
X123422800Y-49083809D02*
X123375180Y-48940952D01*
X123375180Y-48940952D02*
X123375180Y-48845714D01*
X124279942Y-49655238D02*
X124327561Y-49702857D01*
X124327561Y-49702857D02*
X124375180Y-49798095D01*
X124375180Y-49798095D02*
X124375180Y-50036190D01*
X124375180Y-50036190D02*
X124327561Y-50131428D01*
X124327561Y-50131428D02*
X124279942Y-50179047D01*
X124279942Y-50179047D02*
X124184704Y-50226666D01*
X124184704Y-50226666D02*
X124089466Y-50226666D01*
X124089466Y-50226666D02*
X123946609Y-50179047D01*
X123946609Y-50179047D02*
X123375180Y-49607619D01*
X123375180Y-49607619D02*
X123375180Y-50226666D01*
X142601905Y-75754819D02*
X142601905Y-74754819D01*
X142601905Y-74754819D02*
X142840000Y-74754819D01*
X142840000Y-74754819D02*
X142982857Y-74802438D01*
X142982857Y-74802438D02*
X143078095Y-74897676D01*
X143078095Y-74897676D02*
X143125714Y-74992914D01*
X143125714Y-74992914D02*
X143173333Y-75183390D01*
X143173333Y-75183390D02*
X143173333Y-75326247D01*
X143173333Y-75326247D02*
X143125714Y-75516723D01*
X143125714Y-75516723D02*
X143078095Y-75611961D01*
X143078095Y-75611961D02*
X142982857Y-75707200D01*
X142982857Y-75707200D02*
X142840000Y-75754819D01*
X142840000Y-75754819D02*
X142601905Y-75754819D01*
X143554286Y-74850057D02*
X143601905Y-74802438D01*
X143601905Y-74802438D02*
X143697143Y-74754819D01*
X143697143Y-74754819D02*
X143935238Y-74754819D01*
X143935238Y-74754819D02*
X144030476Y-74802438D01*
X144030476Y-74802438D02*
X144078095Y-74850057D01*
X144078095Y-74850057D02*
X144125714Y-74945295D01*
X144125714Y-74945295D02*
X144125714Y-75040533D01*
X144125714Y-75040533D02*
X144078095Y-75183390D01*
X144078095Y-75183390D02*
X143506667Y-75754819D01*
X143506667Y-75754819D02*
X144125714Y-75754819D01*
X126463333Y-68009819D02*
X126130000Y-67533628D01*
X125891905Y-68009819D02*
X125891905Y-67009819D01*
X125891905Y-67009819D02*
X126272857Y-67009819D01*
X126272857Y-67009819D02*
X126368095Y-67057438D01*
X126368095Y-67057438D02*
X126415714Y-67105057D01*
X126415714Y-67105057D02*
X126463333Y-67200295D01*
X126463333Y-67200295D02*
X126463333Y-67343152D01*
X126463333Y-67343152D02*
X126415714Y-67438390D01*
X126415714Y-67438390D02*
X126368095Y-67486009D01*
X126368095Y-67486009D02*
X126272857Y-67533628D01*
X126272857Y-67533628D02*
X125891905Y-67533628D01*
X127320476Y-67343152D02*
X127320476Y-68009819D01*
X127082381Y-66962200D02*
X126844286Y-67676485D01*
X126844286Y-67676485D02*
X127463333Y-67676485D01*
X126088333Y-61084819D02*
X125755000Y-60608628D01*
X125516905Y-61084819D02*
X125516905Y-60084819D01*
X125516905Y-60084819D02*
X125897857Y-60084819D01*
X125897857Y-60084819D02*
X125993095Y-60132438D01*
X125993095Y-60132438D02*
X126040714Y-60180057D01*
X126040714Y-60180057D02*
X126088333Y-60275295D01*
X126088333Y-60275295D02*
X126088333Y-60418152D01*
X126088333Y-60418152D02*
X126040714Y-60513390D01*
X126040714Y-60513390D02*
X125993095Y-60561009D01*
X125993095Y-60561009D02*
X125897857Y-60608628D01*
X125897857Y-60608628D02*
X125516905Y-60608628D01*
X126469286Y-60180057D02*
X126516905Y-60132438D01*
X126516905Y-60132438D02*
X126612143Y-60084819D01*
X126612143Y-60084819D02*
X126850238Y-60084819D01*
X126850238Y-60084819D02*
X126945476Y-60132438D01*
X126945476Y-60132438D02*
X126993095Y-60180057D01*
X126993095Y-60180057D02*
X127040714Y-60275295D01*
X127040714Y-60275295D02*
X127040714Y-60370533D01*
X127040714Y-60370533D02*
X126993095Y-60513390D01*
X126993095Y-60513390D02*
X126421667Y-61084819D01*
X126421667Y-61084819D02*
X127040714Y-61084819D01*
X152759580Y-85006666D02*
X152807200Y-85054285D01*
X152807200Y-85054285D02*
X152854819Y-85197142D01*
X152854819Y-85197142D02*
X152854819Y-85292380D01*
X152854819Y-85292380D02*
X152807200Y-85435237D01*
X152807200Y-85435237D02*
X152711961Y-85530475D01*
X152711961Y-85530475D02*
X152616723Y-85578094D01*
X152616723Y-85578094D02*
X152426247Y-85625713D01*
X152426247Y-85625713D02*
X152283390Y-85625713D01*
X152283390Y-85625713D02*
X152092914Y-85578094D01*
X152092914Y-85578094D02*
X151997676Y-85530475D01*
X151997676Y-85530475D02*
X151902438Y-85435237D01*
X151902438Y-85435237D02*
X151854819Y-85292380D01*
X151854819Y-85292380D02*
X151854819Y-85197142D01*
X151854819Y-85197142D02*
X151902438Y-85054285D01*
X151902438Y-85054285D02*
X151950057Y-85006666D01*
X152854819Y-84530475D02*
X152854819Y-84339999D01*
X152854819Y-84339999D02*
X152807200Y-84244761D01*
X152807200Y-84244761D02*
X152759580Y-84197142D01*
X152759580Y-84197142D02*
X152616723Y-84101904D01*
X152616723Y-84101904D02*
X152426247Y-84054285D01*
X152426247Y-84054285D02*
X152045295Y-84054285D01*
X152045295Y-84054285D02*
X151950057Y-84101904D01*
X151950057Y-84101904D02*
X151902438Y-84149523D01*
X151902438Y-84149523D02*
X151854819Y-84244761D01*
X151854819Y-84244761D02*
X151854819Y-84435237D01*
X151854819Y-84435237D02*
X151902438Y-84530475D01*
X151902438Y-84530475D02*
X151950057Y-84578094D01*
X151950057Y-84578094D02*
X152045295Y-84625713D01*
X152045295Y-84625713D02*
X152283390Y-84625713D01*
X152283390Y-84625713D02*
X152378628Y-84578094D01*
X152378628Y-84578094D02*
X152426247Y-84530475D01*
X152426247Y-84530475D02*
X152473866Y-84435237D01*
X152473866Y-84435237D02*
X152473866Y-84244761D01*
X152473866Y-84244761D02*
X152426247Y-84149523D01*
X152426247Y-84149523D02*
X152378628Y-84101904D01*
X152378628Y-84101904D02*
X152283390Y-84054285D01*
X159315674Y-49128726D02*
X158608567Y-48421619D01*
X158945285Y-48758337D02*
X159349346Y-48354276D01*
X159719735Y-48724665D02*
X159012628Y-48017558D01*
X160426842Y-48017558D02*
X160022781Y-48421619D01*
X160224811Y-48219589D02*
X159517705Y-47512482D01*
X159517705Y-47512482D02*
X159551376Y-47680841D01*
X159551376Y-47680841D02*
X159551376Y-47815528D01*
X159551376Y-47815528D02*
X159517705Y-47916543D01*
X159315674Y-94590695D02*
X158608567Y-93883588D01*
X158945285Y-94220306D02*
X159349346Y-93816245D01*
X159719735Y-94186634D02*
X159012628Y-93479527D01*
X159282002Y-93210153D02*
X159719735Y-92772421D01*
X159719735Y-92772421D02*
X159753407Y-93277497D01*
X159753407Y-93277497D02*
X159854422Y-93176482D01*
X159854422Y-93176482D02*
X159955437Y-93142810D01*
X159955437Y-93142810D02*
X160022781Y-93142810D01*
X160022781Y-93142810D02*
X160123796Y-93176482D01*
X160123796Y-93176482D02*
X160292155Y-93344840D01*
X160292155Y-93344840D02*
X160325827Y-93445856D01*
X160325827Y-93445856D02*
X160325827Y-93513199D01*
X160325827Y-93513199D02*
X160292155Y-93614214D01*
X160292155Y-93614214D02*
X160090124Y-93816245D01*
X160090124Y-93816245D02*
X159989109Y-93849917D01*
X159989109Y-93849917D02*
X159921766Y-93849917D01*
X151269819Y-76753094D02*
X150269819Y-76753094D01*
X150269819Y-76753094D02*
X150269819Y-76514999D01*
X150269819Y-76514999D02*
X150317438Y-76372142D01*
X150317438Y-76372142D02*
X150412676Y-76276904D01*
X150412676Y-76276904D02*
X150507914Y-76229285D01*
X150507914Y-76229285D02*
X150698390Y-76181666D01*
X150698390Y-76181666D02*
X150841247Y-76181666D01*
X150841247Y-76181666D02*
X151031723Y-76229285D01*
X151031723Y-76229285D02*
X151126961Y-76276904D01*
X151126961Y-76276904D02*
X151222200Y-76372142D01*
X151222200Y-76372142D02*
X151269819Y-76514999D01*
X151269819Y-76514999D02*
X151269819Y-76753094D01*
X150269819Y-75276904D02*
X150269819Y-75753094D01*
X150269819Y-75753094D02*
X150746009Y-75800713D01*
X150746009Y-75800713D02*
X150698390Y-75753094D01*
X150698390Y-75753094D02*
X150650771Y-75657856D01*
X150650771Y-75657856D02*
X150650771Y-75419761D01*
X150650771Y-75419761D02*
X150698390Y-75324523D01*
X150698390Y-75324523D02*
X150746009Y-75276904D01*
X150746009Y-75276904D02*
X150841247Y-75229285D01*
X150841247Y-75229285D02*
X151079342Y-75229285D01*
X151079342Y-75229285D02*
X151174580Y-75276904D01*
X151174580Y-75276904D02*
X151222200Y-75324523D01*
X151222200Y-75324523D02*
X151269819Y-75419761D01*
X151269819Y-75419761D02*
X151269819Y-75657856D01*
X151269819Y-75657856D02*
X151222200Y-75753094D01*
X151222200Y-75753094D02*
X151174580Y-75800713D01*
X119227930Y-100438056D02*
X118520823Y-99730949D01*
X118857541Y-100067667D02*
X119261602Y-99663606D01*
X119631991Y-100033995D02*
X118924884Y-99326888D01*
X119800350Y-98922827D02*
X120271754Y-99394232D01*
X119362617Y-98821812D02*
X119699335Y-99495247D01*
X119699335Y-99495247D02*
X120137067Y-99057514D01*
X113855569Y-49128726D02*
X113148462Y-48421619D01*
X113485180Y-48758337D02*
X113889241Y-48354276D01*
X114259630Y-48724665D02*
X113552523Y-48017558D01*
X113922913Y-47781856D02*
X113922913Y-47714513D01*
X113922913Y-47714513D02*
X113956584Y-47613497D01*
X113956584Y-47613497D02*
X114124943Y-47445139D01*
X114124943Y-47445139D02*
X114225958Y-47411467D01*
X114225958Y-47411467D02*
X114293302Y-47411467D01*
X114293302Y-47411467D02*
X114394317Y-47445139D01*
X114394317Y-47445139D02*
X114461661Y-47512482D01*
X114461661Y-47512482D02*
X114529004Y-47647169D01*
X114529004Y-47647169D02*
X114529004Y-48455291D01*
X114529004Y-48455291D02*
X114966737Y-48017558D01*
X167544819Y-66733333D02*
X168259104Y-66733333D01*
X168259104Y-66733333D02*
X168401961Y-66780952D01*
X168401961Y-66780952D02*
X168497200Y-66876190D01*
X168497200Y-66876190D02*
X168544819Y-67019047D01*
X168544819Y-67019047D02*
X168544819Y-67114285D01*
X167544819Y-66352380D02*
X167544819Y-65685714D01*
X167544819Y-65685714D02*
X168544819Y-66114285D01*
X165013333Y-80245180D02*
X165013333Y-79530895D01*
X165013333Y-79530895D02*
X165060952Y-79388038D01*
X165060952Y-79388038D02*
X165156190Y-79292800D01*
X165156190Y-79292800D02*
X165299047Y-79245180D01*
X165299047Y-79245180D02*
X165394285Y-79245180D01*
X164060952Y-80245180D02*
X164537142Y-80245180D01*
X164537142Y-80245180D02*
X164584761Y-79768990D01*
X164584761Y-79768990D02*
X164537142Y-79816609D01*
X164537142Y-79816609D02*
X164441904Y-79864228D01*
X164441904Y-79864228D02*
X164203809Y-79864228D01*
X164203809Y-79864228D02*
X164108571Y-79816609D01*
X164108571Y-79816609D02*
X164060952Y-79768990D01*
X164060952Y-79768990D02*
X164013333Y-79673752D01*
X164013333Y-79673752D02*
X164013333Y-79435657D01*
X164013333Y-79435657D02*
X164060952Y-79340419D01*
X164060952Y-79340419D02*
X164108571Y-79292800D01*
X164108571Y-79292800D02*
X164203809Y-79245180D01*
X164203809Y-79245180D02*
X164441904Y-79245180D01*
X164441904Y-79245180D02*
X164537142Y-79292800D01*
X164537142Y-79292800D02*
X164584761Y-79340419D01*
X121013333Y-59844819D02*
X120680000Y-59368628D01*
X120441905Y-59844819D02*
X120441905Y-58844819D01*
X120441905Y-58844819D02*
X120822857Y-58844819D01*
X120822857Y-58844819D02*
X120918095Y-58892438D01*
X120918095Y-58892438D02*
X120965714Y-58940057D01*
X120965714Y-58940057D02*
X121013333Y-59035295D01*
X121013333Y-59035295D02*
X121013333Y-59178152D01*
X121013333Y-59178152D02*
X120965714Y-59273390D01*
X120965714Y-59273390D02*
X120918095Y-59321009D01*
X120918095Y-59321009D02*
X120822857Y-59368628D01*
X120822857Y-59368628D02*
X120441905Y-59368628D01*
X121346667Y-58844819D02*
X121965714Y-58844819D01*
X121965714Y-58844819D02*
X121632381Y-59225771D01*
X121632381Y-59225771D02*
X121775238Y-59225771D01*
X121775238Y-59225771D02*
X121870476Y-59273390D01*
X121870476Y-59273390D02*
X121918095Y-59321009D01*
X121918095Y-59321009D02*
X121965714Y-59416247D01*
X121965714Y-59416247D02*
X121965714Y-59654342D01*
X121965714Y-59654342D02*
X121918095Y-59749580D01*
X121918095Y-59749580D02*
X121870476Y-59797200D01*
X121870476Y-59797200D02*
X121775238Y-59844819D01*
X121775238Y-59844819D02*
X121489524Y-59844819D01*
X121489524Y-59844819D02*
X121394286Y-59797200D01*
X121394286Y-59797200D02*
X121346667Y-59749580D01*
X155084819Y-98553333D02*
X155799104Y-98553333D01*
X155799104Y-98553333D02*
X155941961Y-98600952D01*
X155941961Y-98600952D02*
X156037200Y-98696190D01*
X156037200Y-98696190D02*
X156084819Y-98839047D01*
X156084819Y-98839047D02*
X156084819Y-98934285D01*
X155418152Y-97648571D02*
X156084819Y-97648571D01*
X155037200Y-97886666D02*
X155751485Y-98124761D01*
X155751485Y-98124761D02*
X155751485Y-97505714D01*
X123004819Y-78381904D02*
X123814342Y-78381904D01*
X123814342Y-78381904D02*
X123909580Y-78334285D01*
X123909580Y-78334285D02*
X123957200Y-78286666D01*
X123957200Y-78286666D02*
X124004819Y-78191428D01*
X124004819Y-78191428D02*
X124004819Y-78000952D01*
X124004819Y-78000952D02*
X123957200Y-77905714D01*
X123957200Y-77905714D02*
X123909580Y-77858095D01*
X123909580Y-77858095D02*
X123814342Y-77810476D01*
X123814342Y-77810476D02*
X123004819Y-77810476D01*
X124004819Y-76810476D02*
X124004819Y-77381904D01*
X124004819Y-77096190D02*
X123004819Y-77096190D01*
X123004819Y-77096190D02*
X123147676Y-77191428D01*
X123147676Y-77191428D02*
X123242914Y-77286666D01*
X123242914Y-77286666D02*
X123290533Y-77381904D01*
X141572448Y-62127063D02*
X141620068Y-62174682D01*
X141620068Y-62174682D02*
X141667687Y-62317539D01*
X141667687Y-62317539D02*
X141667687Y-62412777D01*
X141667687Y-62412777D02*
X141620068Y-62555634D01*
X141620068Y-62555634D02*
X141524829Y-62650872D01*
X141524829Y-62650872D02*
X141429591Y-62698491D01*
X141429591Y-62698491D02*
X141239115Y-62746110D01*
X141239115Y-62746110D02*
X141096258Y-62746110D01*
X141096258Y-62746110D02*
X140905782Y-62698491D01*
X140905782Y-62698491D02*
X140810544Y-62650872D01*
X140810544Y-62650872D02*
X140715306Y-62555634D01*
X140715306Y-62555634D02*
X140667687Y-62412777D01*
X140667687Y-62412777D02*
X140667687Y-62317539D01*
X140667687Y-62317539D02*
X140715306Y-62174682D01*
X140715306Y-62174682D02*
X140762925Y-62127063D01*
X141096258Y-61555634D02*
X141048639Y-61650872D01*
X141048639Y-61650872D02*
X141001020Y-61698491D01*
X141001020Y-61698491D02*
X140905782Y-61746110D01*
X140905782Y-61746110D02*
X140858163Y-61746110D01*
X140858163Y-61746110D02*
X140762925Y-61698491D01*
X140762925Y-61698491D02*
X140715306Y-61650872D01*
X140715306Y-61650872D02*
X140667687Y-61555634D01*
X140667687Y-61555634D02*
X140667687Y-61365158D01*
X140667687Y-61365158D02*
X140715306Y-61269920D01*
X140715306Y-61269920D02*
X140762925Y-61222301D01*
X140762925Y-61222301D02*
X140858163Y-61174682D01*
X140858163Y-61174682D02*
X140905782Y-61174682D01*
X140905782Y-61174682D02*
X141001020Y-61222301D01*
X141001020Y-61222301D02*
X141048639Y-61269920D01*
X141048639Y-61269920D02*
X141096258Y-61365158D01*
X141096258Y-61365158D02*
X141096258Y-61555634D01*
X141096258Y-61555634D02*
X141143877Y-61650872D01*
X141143877Y-61650872D02*
X141191496Y-61698491D01*
X141191496Y-61698491D02*
X141286734Y-61746110D01*
X141286734Y-61746110D02*
X141477210Y-61746110D01*
X141477210Y-61746110D02*
X141572448Y-61698491D01*
X141572448Y-61698491D02*
X141620068Y-61650872D01*
X141620068Y-61650872D02*
X141667687Y-61555634D01*
X141667687Y-61555634D02*
X141667687Y-61365158D01*
X141667687Y-61365158D02*
X141620068Y-61269920D01*
X141620068Y-61269920D02*
X141572448Y-61222301D01*
X141572448Y-61222301D02*
X141477210Y-61174682D01*
X141477210Y-61174682D02*
X141286734Y-61174682D01*
X141286734Y-61174682D02*
X141191496Y-61222301D01*
X141191496Y-61222301D02*
X141143877Y-61269920D01*
X141143877Y-61269920D02*
X141096258Y-61365158D01*
X154864819Y-75936666D02*
X154388628Y-76269999D01*
X154864819Y-76508094D02*
X153864819Y-76508094D01*
X153864819Y-76508094D02*
X153864819Y-76127142D01*
X153864819Y-76127142D02*
X153912438Y-76031904D01*
X153912438Y-76031904D02*
X153960057Y-75984285D01*
X153960057Y-75984285D02*
X154055295Y-75936666D01*
X154055295Y-75936666D02*
X154198152Y-75936666D01*
X154198152Y-75936666D02*
X154293390Y-75984285D01*
X154293390Y-75984285D02*
X154341009Y-76031904D01*
X154341009Y-76031904D02*
X154388628Y-76127142D01*
X154388628Y-76127142D02*
X154388628Y-76508094D01*
X154864819Y-74984285D02*
X154864819Y-75555713D01*
X154864819Y-75269999D02*
X153864819Y-75269999D01*
X153864819Y-75269999D02*
X154007676Y-75365237D01*
X154007676Y-75365237D02*
X154102914Y-75460475D01*
X154102914Y-75460475D02*
X154150533Y-75555713D01*
X150679405Y-53834819D02*
X150679405Y-52834819D01*
X150679405Y-52834819D02*
X150917500Y-52834819D01*
X150917500Y-52834819D02*
X151060357Y-52882438D01*
X151060357Y-52882438D02*
X151155595Y-52977676D01*
X151155595Y-52977676D02*
X151203214Y-53072914D01*
X151203214Y-53072914D02*
X151250833Y-53263390D01*
X151250833Y-53263390D02*
X151250833Y-53406247D01*
X151250833Y-53406247D02*
X151203214Y-53596723D01*
X151203214Y-53596723D02*
X151155595Y-53691961D01*
X151155595Y-53691961D02*
X151060357Y-53787200D01*
X151060357Y-53787200D02*
X150917500Y-53834819D01*
X150917500Y-53834819D02*
X150679405Y-53834819D01*
X151584167Y-52834819D02*
X152203214Y-52834819D01*
X152203214Y-52834819D02*
X151869881Y-53215771D01*
X151869881Y-53215771D02*
X152012738Y-53215771D01*
X152012738Y-53215771D02*
X152107976Y-53263390D01*
X152107976Y-53263390D02*
X152155595Y-53311009D01*
X152155595Y-53311009D02*
X152203214Y-53406247D01*
X152203214Y-53406247D02*
X152203214Y-53644342D01*
X152203214Y-53644342D02*
X152155595Y-53739580D01*
X152155595Y-53739580D02*
X152107976Y-53787200D01*
X152107976Y-53787200D02*
X152012738Y-53834819D01*
X152012738Y-53834819D02*
X151727024Y-53834819D01*
X151727024Y-53834819D02*
X151631786Y-53787200D01*
X151631786Y-53787200D02*
X151584167Y-53739580D01*
X140964819Y-98353333D02*
X141679104Y-98353333D01*
X141679104Y-98353333D02*
X141821961Y-98400952D01*
X141821961Y-98400952D02*
X141917200Y-98496190D01*
X141917200Y-98496190D02*
X141964819Y-98639047D01*
X141964819Y-98639047D02*
X141964819Y-98734285D01*
X141393390Y-97734285D02*
X141345771Y-97829523D01*
X141345771Y-97829523D02*
X141298152Y-97877142D01*
X141298152Y-97877142D02*
X141202914Y-97924761D01*
X141202914Y-97924761D02*
X141155295Y-97924761D01*
X141155295Y-97924761D02*
X141060057Y-97877142D01*
X141060057Y-97877142D02*
X141012438Y-97829523D01*
X141012438Y-97829523D02*
X140964819Y-97734285D01*
X140964819Y-97734285D02*
X140964819Y-97543809D01*
X140964819Y-97543809D02*
X141012438Y-97448571D01*
X141012438Y-97448571D02*
X141060057Y-97400952D01*
X141060057Y-97400952D02*
X141155295Y-97353333D01*
X141155295Y-97353333D02*
X141202914Y-97353333D01*
X141202914Y-97353333D02*
X141298152Y-97400952D01*
X141298152Y-97400952D02*
X141345771Y-97448571D01*
X141345771Y-97448571D02*
X141393390Y-97543809D01*
X141393390Y-97543809D02*
X141393390Y-97734285D01*
X141393390Y-97734285D02*
X141441009Y-97829523D01*
X141441009Y-97829523D02*
X141488628Y-97877142D01*
X141488628Y-97877142D02*
X141583866Y-97924761D01*
X141583866Y-97924761D02*
X141774342Y-97924761D01*
X141774342Y-97924761D02*
X141869580Y-97877142D01*
X141869580Y-97877142D02*
X141917200Y-97829523D01*
X141917200Y-97829523D02*
X141964819Y-97734285D01*
X141964819Y-97734285D02*
X141964819Y-97543809D01*
X141964819Y-97543809D02*
X141917200Y-97448571D01*
X141917200Y-97448571D02*
X141869580Y-97400952D01*
X141869580Y-97400952D02*
X141774342Y-97353333D01*
X141774342Y-97353333D02*
X141583866Y-97353333D01*
X141583866Y-97353333D02*
X141488628Y-97400952D01*
X141488628Y-97400952D02*
X141441009Y-97448571D01*
X141441009Y-97448571D02*
X141393390Y-97543809D01*
D14*
%TO.C,L1*%
X138400000Y-80890000D02*
X151000000Y-80890000D01*
X138400000Y-83890000D02*
X138400000Y-80890000D01*
X138400000Y-93490000D02*
X138400000Y-90490000D01*
X151000000Y-80890000D02*
X151000000Y-83890000D01*
X151000000Y-90490000D02*
X151000000Y-93490000D01*
X151000000Y-93490000D02*
X138400000Y-93490000D01*
%TO.C,C4*%
X118830000Y-62284437D02*
X118830000Y-65740000D01*
X118830000Y-65740000D02*
X120030000Y-65740000D01*
X119894437Y-61220000D02*
X118830000Y-62284437D01*
X119894437Y-61220000D02*
X120030000Y-61220000D01*
X122285563Y-61220000D02*
X122150000Y-61220000D01*
X122285563Y-61220000D02*
X123350000Y-62284437D01*
X122650000Y-60480000D02*
X122650000Y-60980000D01*
X122900000Y-60730000D02*
X122400000Y-60730000D01*
X123350000Y-62284437D02*
X123350000Y-65740000D01*
X123350000Y-65740000D02*
X122150000Y-65740000D01*
%TO.C,C1*%
X155390000Y-75088748D02*
X155390000Y-76511252D01*
X157210000Y-75088748D02*
X157210000Y-76511252D01*
%TO.C,R5*%
X127357064Y-68425000D02*
X125902936Y-68425000D01*
X127357064Y-70245000D02*
X125902936Y-70245000D01*
D15*
%TO.C,S1*%
X139630000Y-57525000D02*
X139630000Y-57525000D01*
X139630000Y-57625000D02*
X139630000Y-57625000D01*
X139630000Y-57525000D02*
G75*
G02*
X139630000Y-57625000I0J-50000D01*
G01*
X139630000Y-57625000D02*
G75*
G02*
X139630000Y-57525000I0J50000D01*
G01*
D14*
%TO.C,SW1*%
X148820000Y-44105000D02*
X148820000Y-48605000D01*
X148820000Y-44105000D02*
X156920000Y-44105000D01*
X156920000Y-48605000D02*
X148820000Y-48605000D01*
X156920000Y-48605000D02*
X156920000Y-44105000D01*
%TO.C,C6*%
X144861280Y-56927829D02*
X148711280Y-56927829D01*
X144861280Y-66583392D02*
X144861280Y-56927829D01*
X145925717Y-67647829D02*
X144861280Y-66583392D01*
X145925717Y-67647829D02*
X148711280Y-67647829D01*
X146836280Y-68512829D02*
X148086280Y-68512829D01*
X147461280Y-69137829D02*
X147461280Y-67887829D01*
X154516843Y-67647829D02*
X151731280Y-67647829D01*
X154516843Y-67647829D02*
X155581280Y-66583392D01*
X155581280Y-56927829D02*
X151731280Y-56927829D01*
X155581280Y-66583392D02*
X155581280Y-56927829D01*
%TO.C,C10*%
X110007500Y-69990000D02*
X111257500Y-69990000D01*
X110632500Y-69365000D02*
X110632500Y-70615000D01*
X111497500Y-68454437D02*
X111497500Y-71240000D01*
X111497500Y-68454437D02*
X112561937Y-67390000D01*
X111497500Y-77045563D02*
X111497500Y-74260000D01*
X111497500Y-77045563D02*
X112561937Y-78110000D01*
X112561937Y-67390000D02*
X122217500Y-67390000D01*
X112561937Y-78110000D02*
X122217500Y-78110000D01*
X122217500Y-67390000D02*
X122217500Y-71240000D01*
X122217500Y-78110000D02*
X122217500Y-74260000D01*
%TO.C,D2*%
X137572500Y-76370000D02*
X137572500Y-79670000D01*
X137572500Y-76370000D02*
X143082500Y-76370000D01*
X137572500Y-79670000D02*
X143082500Y-79670000D01*
%TO.C,R4*%
X127357064Y-64825000D02*
X125902936Y-64825000D01*
X127357064Y-66645000D02*
X125902936Y-66645000D01*
%TO.C,R2*%
X126982064Y-57900000D02*
X125527936Y-57900000D01*
X126982064Y-59720000D02*
X125527936Y-59720000D01*
%TO.C,C9*%
X153340000Y-81430000D02*
X155690000Y-81430000D01*
X153340000Y-87185563D02*
X153340000Y-81430000D01*
X154404437Y-88250000D02*
X153340000Y-87185563D01*
X154404437Y-88250000D02*
X155690000Y-88250000D01*
X154508750Y-88883750D02*
X155296250Y-88883750D01*
X154902500Y-89277500D02*
X154902500Y-88490000D01*
X159095563Y-88250000D02*
X157810000Y-88250000D01*
X159095563Y-88250000D02*
X160160000Y-87185563D01*
X160160000Y-81430000D02*
X157810000Y-81430000D01*
X160160000Y-87185563D02*
X160160000Y-81430000D01*
%TO.C,D5*%
X147705000Y-73355000D02*
X147705000Y-77765000D01*
X149925000Y-73355000D02*
X147705000Y-73355000D01*
X149925000Y-77765000D02*
X149925000Y-73355000D01*
%TO.C,J7*%
X161610000Y-67480000D02*
X161610000Y-77640000D01*
X161610000Y-77640000D02*
X169230000Y-77640000D01*
X162880000Y-77640000D02*
X162880000Y-67480000D01*
X169230000Y-67480000D02*
X161610000Y-67480000D01*
X169230000Y-77640000D02*
X169230000Y-67480000D01*
%TO.C,R3*%
X121907064Y-56660000D02*
X120452936Y-56660000D01*
X121907064Y-58480000D02*
X120452936Y-58480000D01*
%TO.C,J1*%
X166310000Y-49370000D02*
X166310000Y-46720000D01*
X169070000Y-46720000D02*
X166310000Y-46720000D01*
X169070000Y-49370000D02*
X166310000Y-49370000D01*
X169070000Y-49370000D02*
X169070000Y-46720000D01*
X169070000Y-50640000D02*
X169070000Y-52020000D01*
X169070000Y-52020000D02*
X167690000Y-52020000D01*
%TO.C,U1*%
X124970000Y-84090000D02*
X124970000Y-85455000D01*
X124970000Y-85455000D02*
X125920000Y-85455000D01*
X135370000Y-84090000D02*
X135370000Y-85455000D01*
X135370000Y-85455000D02*
X134420000Y-85455000D01*
X125960000Y-88280000D02*
X125490000Y-88620000D01*
X125490000Y-87940000D01*
X125960000Y-88280000D01*
G36*
X125960000Y-88280000D02*
G01*
X125490000Y-88620000D01*
X125490000Y-87940000D01*
X125960000Y-88280000D01*
G37*
%TO.C,C8*%
X142152868Y-62671649D02*
X142152868Y-61249145D01*
X143972868Y-62671649D02*
X143972868Y-61249145D01*
%TO.C,R1*%
X151680000Y-75042936D02*
X151680000Y-76497064D01*
X153500000Y-75042936D02*
X153500000Y-76497064D01*
%TO.C,D3*%
X153777500Y-50380000D02*
X149767500Y-50380000D01*
X153777500Y-52380000D02*
X149767500Y-52380000D01*
X153777500Y-52380000D02*
X153777500Y-50380000D01*
%TD*%
M02*
